<svg xmlns="http://www.w3.org/2000/svg" xmlns:xlink="http://www.w3.org/1999/xlink" width="500" zoomAndPan="magnify" viewBox="0 0 375 374.999991" height="500" preserveAspectRatio="xMidYMid meet" version="1.0"><defs><g/></defs><rect x="-37.5" width="450" fill="#ffffff" y="-37.499999" height="449.999989" fill-opacity="1"/><rect x="-37.5" width="450" fill="#313639" y="-37.499999" height="449.999989" fill-opacity="1"/><g fill="#ffffff" fill-opacity="1"><g transform="translate(140.720693, 368.658689)"><g><path d="M 64.90625 -233.5 L 64.90625 -30.359375 L 183.765625 -30.359375 L 183.765625 0 L 33.59375 0 L 33.59375 -233.5 Z M 64.90625 -233.5 "/></g></g></g><g fill="#ffffff" fill-opacity="1"><g transform="translate(54.037321, 249.483989)"><g><path d="M 205.078125 -17.4375 C 197.535156 -12.488281 188.003906 -7.914062 176.484375 -3.71875 C 164.972656 0.476562 152.4375 2.578125 138.875 2.578125 C 114.96875 2.578125 93.914062 -2.691406 75.71875 -13.234375 C 57.53125 -23.785156 43.535156 -37.992188 33.734375 -55.859375 C 23.941406 -73.734375 19.046875 -93.4375 19.046875 -114.96875 C 19.046875 -138.007812 24 -158.734375 33.90625 -177.140625 C 43.8125 -195.546875 57.535156 -209.96875 75.078125 -220.40625 C 92.628906 -230.851562 112.492188 -236.078125 134.671875 -236.078125 C 147.804688 -236.078125 160.078125 -234.351562 171.484375 -230.90625 C 182.898438 -227.46875 193.128906 -222.945312 202.171875 -217.34375 L 189.578125 -187.953125 C 171.703125 -200.015625 153.722656 -206.046875 135.640625 -206.046875 C 120.566406 -206.046875 106.625 -202.0625 93.8125 -194.09375 C 81.007812 -186.125 70.785156 -175.300781 63.140625 -161.625 C 55.492188 -147.957031 51.671875 -132.945312 51.671875 -116.59375 C 51.671875 -99.789062 55.171875 -84.609375 62.171875 -71.046875 C 69.171875 -57.484375 79.179688 -46.878906 92.203125 -39.234375 C 105.222656 -31.597656 120.238281 -27.78125 137.25 -27.78125 C 158.132812 -27.78125 176.328125 -33.695312 191.828125 -45.53125 Z M 205.078125 -17.4375 "/></g></g></g></svg>