<svg xmlns="http://www.w3.org/2000/svg" xmlns:xlink="http://www.w3.org/1999/xlink" width="500" zoomAndPan="magnify" viewBox="0 0 375 374.999991" height="500" preserveAspectRatio="xMidYMid meet" version="1.0"><defs><clipPath id="85e6ce7b6b"><path d="M 72.1875 210 L 188 210 L 188 375 L 72.1875 375 Z M 72.1875 210 " clip-rule="nonzero"/></clipPath></defs><rect x="-37.5" width="450" fill="#ffffff" y="-37.499999" height="449.999989" fill-opacity="1"/><rect x="-37.5" width="450" fill="#171717" y="-37.499999" height="449.999989" fill-opacity="1"/><path fill="#a6a6a6" d="M 187.488281 0.1875 L 187.488281 136.273438 L 73.792969 189.683594 L 73.410156 189.464844 L 85.183594 169.921875 Z M 187.488281 0.1875 " fill-opacity="1" fill-rule="nonzero"/><g clip-path="url(#85e6ce7b6b)"><path fill="#a6a6a6" d="M 187.488281 279.347656 L 187.488281 374.800781 L 72.1875 210.292969 Z M 187.488281 279.347656 " fill-opacity="1" fill-rule="nonzero"/></g><path fill="#737373" d="M 187.488281 136.273438 L 187.488281 257.785156 L 87.609375 197.964844 L 73.792969 189.683594 Z M 187.488281 136.273438 " fill-opacity="1" fill-rule="nonzero"/><path fill="#737373" d="M 301.585938 189.464844 L 301.207031 189.683594 L 187.488281 136.273438 L 187.488281 0.1875 L 289.8125 169.921875 Z M 301.585938 189.464844 " fill-opacity="1" fill-rule="nonzero"/><path fill="#545454" d="M 301.207031 189.683594 L 287.367188 197.964844 L 187.488281 257.785156 L 187.488281 136.273438 Z M 301.207031 189.683594 " fill-opacity="1" fill-rule="nonzero"/><path fill="#737373" d="M 302.808594 210.292969 L 187.511719 374.820312 L 187.488281 374.800781 L 187.488281 279.347656 Z M 302.808594 210.292969 " fill-opacity="1" fill-rule="nonzero"/></svg>