<svg xmlns="http://www.w3.org/2000/svg" xmlns:xlink="http://www.w3.org/1999/xlink" width="500" zoomAndPan="magnify" viewBox="0 0 375 374.999991" height="500" preserveAspectRatio="xMidYMid meet" version="1.0"><rect x="-37.5" width="450" fill="#ffffff" y="-37.499999" height="449.999989" fill-opacity="1"/><rect x="-37.5" width="450" fill="#171717" y="-37.499999" height="449.999989" fill-opacity="1"/><path fill="#737373" d="M 186.421875 362.578125 C 182.601562 362.578125 178.785156 362.457031 174.972656 362.210938 C 171.160156 361.960938 167.363281 361.589844 163.574219 361.09375 C 159.789062 360.597656 156.019531 359.976562 152.273438 359.234375 C 148.527344 358.492188 144.808594 357.628906 141.117188 356.640625 C 137.429688 355.652344 133.773438 354.546875 130.15625 353.320312 C 126.539062 352.097656 122.964844 350.753906 119.4375 349.292969 C 115.90625 347.832031 112.429688 346.261719 109 344.570312 C 105.574219 342.882812 102.207031 341.085938 98.898438 339.179688 C 95.589844 337.269531 92.347656 335.253906 89.167969 333.136719 C 85.992188 331.015625 82.886719 328.792969 79.855469 326.46875 C 76.824219 324.144531 73.875 321.722656 71 319.207031 C 68.128906 316.6875 65.339844 314.082031 62.636719 311.378906 C 59.9375 308.679688 57.324219 305.894531 54.804688 303.023438 C 52.285156 300.152344 49.863281 297.203125 47.535156 294.171875 C 45.210938 291.144531 42.984375 288.042969 40.863281 284.867188 C 38.738281 281.691406 36.722656 278.449219 34.8125 275.140625 C 32.898438 271.835938 31.097656 268.46875 29.410156 265.042969 C 27.71875 261.617188 26.140625 258.140625 24.679688 254.613281 C 23.214844 251.085938 21.871094 247.511719 20.640625 243.894531 C 19.414062 240.277344 18.304688 236.625 17.316406 232.9375 C 16.324219 229.246094 15.457031 225.527344 14.710938 221.78125 C 13.964844 218.035156 13.34375 214.269531 12.84375 210.484375 C 12.34375 206.695312 11.96875 202.898438 11.71875 199.085938 C 11.46875 195.273438 11.34375 191.457031 11.34375 187.640625 C 11.339844 183.820312 11.464844 180.003906 11.714844 176.191406 C 11.964844 172.378906 12.339844 168.582031 12.835938 164.792969 C 13.335938 161.007812 13.957031 157.238281 14.699219 153.492188 C 15.445312 149.746094 16.3125 146.027344 17.300781 142.339844 C 18.289062 138.648438 19.394531 134.996094 20.625 131.378906 C 21.851562 127.761719 23.195312 124.1875 24.65625 120.660156 C 26.121094 117.132812 27.695312 113.652344 29.382812 110.226562 C 31.074219 106.800781 32.875 103.433594 34.78125 100.128906 C 36.214844 97.644531 37.703125 95.199219 39.253906 92.789062 C 40.804688 90.378906 42.414062 88.007812 44.082031 85.679688 C 45.75 83.347656 47.472656 81.058594 49.253906 78.8125 C 51.03125 76.566406 52.867188 74.367188 54.753906 72.210938 C 56.640625 70.054688 58.582031 67.949219 60.570312 65.886719 C 62.5625 63.828125 64.605469 61.816406 66.695312 59.855469 C 68.785156 57.894531 70.921875 55.988281 73.105469 54.132812 C 75.289062 52.277344 77.515625 50.476562 79.789062 48.730469 C 82.0625 46.984375 84.375 45.296875 86.730469 43.664062 C 89.085938 42.03125 91.480469 40.460938 93.914062 38.945312 C 96.34375 37.429688 98.8125 35.976562 101.316406 34.582031 C 103.820312 33.191406 106.359375 31.859375 108.925781 30.589844 C 111.496094 29.324219 114.09375 28.117188 116.722656 26.976562 C 119.351562 25.835938 122.007812 24.761719 124.6875 23.75 C 127.371094 22.738281 130.074219 21.796875 132.804688 20.917969 C 135.53125 20.039062 138.277344 19.230469 141.046875 18.488281 C 143.8125 17.746094 146.597656 17.070312 149.398438 16.464844 C 152.199219 15.859375 155.011719 15.324219 157.839844 14.855469 C 160.667969 14.386719 163.503906 13.992188 166.351562 13.664062 C 169.199219 13.335938 172.050781 13.074219 174.910156 12.886719 C 177.769531 12.699219 180.632812 12.582031 183.496094 12.535156 C 186.363281 12.488281 189.226562 12.511719 192.089844 12.605469 C 194.953125 12.699219 197.8125 12.863281 200.671875 13.09375 C 203.527344 13.328125 206.375 13.632812 209.214844 14.007812 C 212.054688 14.382812 214.886719 14.824219 217.707031 15.335938 C 220.523438 15.851562 223.328125 16.433594 226.121094 17.082031 C 228.910156 17.734375 231.683594 18.453125 234.4375 19.238281 C 237.195312 20.027344 239.929688 20.882812 242.640625 21.800781 C 245.355469 22.722656 248.042969 23.710938 250.710938 24.765625 C 253.375 25.816406 256.011719 26.9375 258.621094 28.121094 C 261.230469 29.300781 263.808594 30.546875 266.359375 31.859375 C 268.90625 33.167969 271.421875 34.539062 273.902344 35.972656 C 277.632812 38.117188 281.28125 40.394531 284.84375 42.808594 C 288.40625 45.222656 291.875 47.761719 295.25 50.433594 C 298.625 53.101562 301.894531 55.890625 305.066406 58.800781 C 308.234375 61.710938 311.292969 64.734375 314.238281 67.871094 C 317.183594 71.007812 320.011719 74.246094 322.71875 77.589844 C 325.425781 80.933594 328.003906 84.375 330.457031 87.910156 C 332.910156 91.445312 335.230469 95.066406 337.417969 98.769531 C 339.601562 102.476562 341.648438 106.257812 343.558594 110.113281 C 345.464844 113.972656 347.226562 117.894531 348.84375 121.878906 C 350.460938 125.867188 351.929688 129.910156 353.25 134.003906 C 354.570312 138.097656 355.738281 142.238281 356.75 146.417969 C 357.765625 150.601562 358.625 154.8125 359.328125 159.058594 C 360.03125 163.304688 360.578125 167.566406 360.96875 171.851562 C 361.355469 176.136719 361.585938 180.433594 361.660156 184.734375 C 361.730469 189.035156 361.644531 193.335938 361.398438 197.632812 C 361.15625 201.925781 360.753906 206.207031 360.191406 210.472656 C 359.628906 214.738281 358.914062 218.980469 358.039062 223.191406 C 357.167969 227.40625 356.140625 231.582031 354.957031 235.71875 C 353.777344 239.855469 352.445312 243.941406 350.960938 247.980469 C 349.476562 252.019531 347.847656 256 346.070312 259.917969 C 344.292969 263.835938 342.375 267.683594 340.3125 271.460938 C 338.253906 275.238281 336.058594 278.9375 333.722656 282.550781 C 331.390625 286.167969 328.925781 289.691406 326.332031 293.125 C 323.742188 296.558594 321.023438 299.890625 318.183594 303.125 C 315.347656 306.355469 312.390625 309.480469 309.320312 312.496094 C 306.253906 315.511719 303.074219 318.40625 299.792969 321.1875 C 296.507812 323.96875 293.128906 326.625 289.648438 329.15625 C 286.167969 331.6875 282.601562 334.085938 278.945312 336.355469 C 275.289062 338.625 271.550781 340.753906 267.738281 342.746094 C 263.925781 344.738281 260.042969 346.585938 256.09375 348.292969 C 252.144531 350 248.136719 351.558594 244.070312 352.96875 C 240.007812 354.378906 235.894531 355.636719 231.738281 356.746094 C 216.886719 360.65625 201.78125 362.601562 186.421875 362.578125 Z M 186.421875 24.308594 C 183.152344 24.308594 179.890625 24.402344 176.628906 24.597656 C 173.367188 24.792969 170.117188 25.082031 166.871094 25.472656 C 163.628906 25.863281 160.398438 26.347656 157.1875 26.929688 C 153.972656 27.515625 150.777344 28.191406 147.605469 28.96875 C 144.429688 29.742188 141.28125 30.613281 138.160156 31.574219 C 135.039062 32.539062 131.949219 33.59375 128.894531 34.742188 C 125.835938 35.894531 122.8125 37.132812 119.832031 38.464844 C 116.847656 39.792969 113.90625 41.210938 111.007812 42.71875 C 108.109375 44.226562 105.257812 45.816406 102.457031 47.496094 C 99.652344 49.175781 96.902344 50.933594 94.203125 52.777344 C 91.507812 54.621094 88.867188 56.542969 86.285156 58.542969 C 83.703125 60.546875 81.183594 62.621094 78.726562 64.773438 C 76.269531 66.925781 73.878906 69.152344 71.554688 71.449219 C 69.230469 73.742188 66.980469 76.105469 64.796875 78.539062 C 62.617188 80.96875 60.507812 83.464844 58.476562 86.023438 C 56.445312 88.578125 54.492188 91.195312 52.617188 93.871094 C 50.738281 96.546875 48.945312 99.273438 47.234375 102.058594 C 45.523438 104.839844 43.898438 107.671875 42.355469 110.550781 C 40.8125 113.429688 39.359375 116.355469 37.996094 119.320312 C 36.628906 122.289062 35.351562 125.296875 34.167969 128.339844 C 32.980469 131.382812 31.886719 134.460938 30.886719 137.570312 C 29.886719 140.679688 28.980469 143.816406 28.167969 146.980469 C 27.351562 150.144531 26.636719 153.328125 26.015625 156.535156 C 25.394531 159.742188 24.867188 162.964844 24.441406 166.203125 C 24.011719 169.445312 23.679688 172.691406 23.449219 175.949219 C 23.214844 179.207031 23.078125 182.472656 23.042969 185.738281 C 23.003906 189.003906 23.0625 192.269531 23.222656 195.53125 C 23.382812 198.792969 23.636719 202.050781 23.992188 205.296875 C 24.34375 208.546875 24.796875 211.777344 25.34375 215 C 25.890625 218.21875 26.535156 221.421875 27.277344 224.601562 C 28.015625 227.785156 28.851562 230.941406 29.78125 234.074219 C 30.710938 237.203125 31.730469 240.304688 32.847656 243.375 C 33.964844 246.445312 35.167969 249.480469 36.46875 252.480469 C 37.765625 255.476562 39.152344 258.433594 40.625 261.347656 C 42.101562 264.261719 43.664062 267.128906 45.308594 269.953125 C 46.957031 272.773438 48.6875 275.542969 50.5 278.257812 C 52.3125 280.976562 54.207031 283.636719 56.179688 286.242188 C 58.152344 288.84375 60.203125 291.386719 62.328125 293.867188 C 64.453125 296.347656 66.652344 298.761719 68.921875 301.109375 C 71.191406 303.460938 73.53125 305.738281 75.9375 307.945312 C 78.34375 310.15625 80.816406 312.289062 83.351562 314.347656 C 85.886719 316.410156 88.480469 318.390625 91.136719 320.296875 C 93.789062 322.199219 96.5 324.023438 99.261719 325.765625 C 102.027344 327.507812 104.839844 329.164062 107.703125 330.738281 C 110.566406 332.308594 113.472656 333.796875 116.425781 335.195312 C 119.378906 336.59375 122.371094 337.902344 125.402344 339.121094 C 128.433594 340.339844 131.496094 341.464844 134.59375 342.5 C 137.695312 343.535156 140.820312 344.476562 143.976562 345.324219 C 147.128906 346.171875 150.308594 346.921875 153.507812 347.578125 C 156.707031 348.238281 159.925781 348.796875 163.160156 349.261719 C 166.390625 349.722656 169.636719 350.089844 172.894531 350.359375 C 176.148438 350.628906 179.410156 350.796875 182.675781 350.871094 C 185.941406 350.945312 189.207031 350.921875 192.46875 350.796875 C 195.734375 350.675781 198.992188 350.453125 202.242188 350.136719 C 205.496094 349.816406 208.734375 349.402344 211.960938 348.890625 C 215.1875 348.375 218.394531 347.769531 221.585938 347.0625 C 224.773438 346.355469 227.941406 345.558594 231.082031 344.660156 C 234.222656 343.765625 237.335938 342.777344 240.417969 341.695312 C 243.5 340.613281 246.546875 339.441406 249.558594 338.175781 C 252.570312 336.910156 255.542969 335.558594 258.472656 334.113281 C 261.402344 332.671875 264.289062 331.140625 267.128906 329.523438 C 269.964844 327.910156 272.753906 326.210938 275.492188 324.425781 C 278.226562 322.640625 280.910156 320.777344 283.535156 318.832031 C 286.160156 316.890625 288.722656 314.867188 291.226562 312.769531 C 293.730469 310.671875 296.167969 308.5 298.542969 306.253906 C 300.914062 304.011719 303.21875 301.695312 305.453125 299.3125 C 307.6875 296.929688 309.851562 294.484375 311.9375 291.96875 C 314.023438 289.457031 316.035156 286.882812 317.96875 284.25 C 319.902344 281.617188 321.753906 278.929688 323.527344 276.183594 C 325.296875 273.441406 326.988281 270.644531 328.589844 267.800781 C 330.195312 264.953125 331.710938 262.0625 333.144531 259.125 C 334.574219 256.1875 335.914062 253.210938 337.167969 250.195312 C 338.417969 247.175781 339.578125 244.125 340.648438 241.039062 C 341.714844 237.949219 342.691406 234.835938 343.574219 231.6875 C 344.457031 228.542969 345.242188 225.375 345.933594 222.183594 C 346.625 218.988281 347.21875 215.777344 347.71875 212.550781 C 348.21875 209.320312 348.621094 206.082031 348.925781 202.828125 C 349.226562 199.578125 349.433594 196.316406 349.542969 193.050781 C 349.652344 189.789062 349.664062 186.523438 349.578125 183.257812 C 349.488281 179.992188 349.304688 176.730469 349.023438 173.476562 C 348.738281 170.222656 348.359375 166.980469 347.882812 163.746094 C 347.40625 160.515625 346.832031 157.300781 346.160156 154.105469 C 345.488281 150.90625 344.722656 147.734375 343.863281 144.582031 C 343.003906 141.429688 342.046875 138.308594 341 135.214844 C 339.953125 132.121094 338.8125 129.058594 337.582031 126.035156 C 336.347656 123.007812 335.027344 120.023438 333.617188 117.078125 C 332.207031 114.128906 330.707031 111.230469 329.121094 108.371094 C 327.535156 105.515625 325.867188 102.710938 324.113281 99.953125 C 322.359375 97.195312 320.527344 94.496094 318.609375 91.851562 C 316.695312 89.203125 314.703125 86.617188 312.628906 84.089844 C 310.558594 81.5625 308.414062 79.101562 306.195312 76.703125 C 303.976562 74.304688 301.691406 71.976562 299.332031 69.71875 C 296.972656 67.457031 294.546875 65.269531 292.058594 63.152344 C 289.570312 61.039062 287.019531 59 284.40625 57.039062 C 281.792969 55.078125 279.125 53.195312 276.402344 51.394531 C 273.675781 49.589844 270.898438 47.871094 268.070312 46.238281 C 261.898438 42.652344 255.519531 39.488281 248.925781 36.746094 C 242.335938 34.003906 235.59375 31.707031 228.703125 29.855469 C 221.808594 28.003906 214.820312 26.613281 207.742188 25.683594 C 200.667969 24.757812 193.558594 24.296875 186.421875 24.308594 Z M 186.421875 24.308594 " fill-opacity="1" fill-rule="nonzero"/><path fill="#737373" d="M 259.324219 61.34375 C 257.257812 60.148438 255.164062 59.007812 253.039062 57.917969 C 250.917969 56.828125 248.769531 55.789062 246.59375 54.804688 C 244.421875 53.820312 242.226562 52.890625 240.007812 52.011719 C 237.789062 51.136719 235.546875 50.3125 233.289062 49.546875 C 231.027344 48.777344 228.75 48.066406 226.457031 47.414062 C 224.164062 46.757812 221.855469 46.160156 219.53125 45.617188 C 217.207031 45.074219 214.871094 44.589844 212.523438 44.164062 C 210.175781 43.734375 207.816406 43.367188 205.453125 43.054688 C 203.085938 42.742188 200.714844 42.488281 198.335938 42.292969 C 195.957031 42.097656 193.578125 41.960938 191.191406 41.882812 C 188.804688 41.804688 186.421875 41.785156 184.035156 41.824219 C 181.648438 41.863281 179.265625 41.960938 176.882812 42.117188 C 174.503906 42.273438 172.128906 42.488281 169.757812 42.761719 C 167.386719 43.035156 165.023438 43.363281 162.667969 43.753906 C 160.316406 44.140625 157.972656 44.589844 155.640625 45.09375 C 153.304688 45.59375 150.988281 46.15625 148.683594 46.773438 C 146.378906 47.390625 144.089844 48.066406 141.816406 48.792969 C 139.546875 49.523438 137.292969 50.308594 135.058594 51.152344 C 132.828125 51.992188 130.617188 52.886719 128.425781 53.835938 C 126.238281 54.785156 124.070312 55.785156 121.929688 56.839844 C 119.792969 57.898438 117.679688 59.003906 115.59375 60.164062 C 113.507812 61.320312 111.449219 62.53125 109.425781 63.792969 C 107.398438 65.050781 105.402344 66.359375 103.441406 67.71875 C 101.480469 69.078125 99.550781 70.480469 97.660156 71.933594 C 95.765625 73.386719 93.910156 74.886719 92.089844 76.429688 C 90.269531 77.972656 88.488281 79.558594 86.746094 81.191406 C 85.003906 82.824219 83.304688 84.496094 81.644531 86.210938 C 79.984375 87.925781 78.371094 89.679688 76.796875 91.472656 C 75.222656 93.265625 73.695312 95.097656 72.210938 96.96875 C 70.726562 98.835938 69.289062 100.742188 67.902344 102.679688 C 66.511719 104.621094 65.167969 106.59375 63.875 108.597656 C 62.582031 110.605469 61.339844 112.640625 60.148438 114.707031 C 58.953125 116.773438 57.8125 118.867188 56.722656 120.992188 C 55.632812 123.113281 54.59375 125.261719 53.609375 127.433594 C 52.625 129.609375 51.691406 131.804688 50.816406 134.023438 C 49.9375 136.242188 49.117188 138.480469 48.351562 140.742188 C 47.582031 143 46.871094 145.277344 46.214844 147.574219 C 45.5625 149.867188 44.960938 152.175781 44.421875 154.5 C 43.878906 156.824219 43.394531 159.160156 42.964844 161.507812 C 42.539062 163.855469 42.171875 166.210938 41.859375 168.578125 C 41.546875 170.945312 41.292969 173.316406 41.097656 175.695312 C 40.902344 178.074219 40.765625 180.453125 40.6875 182.839844 C 40.609375 185.222656 40.589844 187.609375 40.628906 189.996094 C 40.667969 192.382812 40.765625 194.765625 40.921875 197.144531 C 41.078125 199.527344 41.292969 201.902344 41.566406 204.273438 C 41.839844 206.644531 42.167969 209.007812 42.558594 211.359375 C 42.945312 213.714844 43.394531 216.058594 43.898438 218.390625 C 44.398438 220.722656 44.960938 223.042969 45.578125 225.347656 C 46.195312 227.652344 46.871094 229.941406 47.601562 232.210938 C 48.328125 234.484375 49.113281 236.738281 49.957031 238.96875 C 50.796875 241.203125 51.691406 243.414062 52.640625 245.605469 C 53.589844 247.792969 54.589844 249.957031 55.648438 252.097656 C 56.703125 254.238281 57.808594 256.351562 58.96875 258.4375 C 60.128906 260.523438 61.335938 262.578125 62.597656 264.605469 C 63.855469 266.632812 65.167969 268.625 66.523438 270.589844 C 67.882812 272.550781 69.289062 274.476562 70.742188 276.371094 C 72.191406 278.265625 73.691406 280.121094 75.234375 281.941406 C 76.777344 283.761719 78.367188 285.539062 79.996094 287.28125 C 81.628906 289.023438 83.300781 290.726562 85.015625 292.382812 C 86.730469 294.042969 88.484375 295.660156 90.28125 297.234375 C 92.074219 298.808594 93.90625 300.335938 95.773438 301.820312 C 97.644531 303.300781 99.546875 304.738281 101.488281 306.128906 C 103.425781 307.519531 105.398438 308.859375 107.40625 310.152344 C 109.410156 311.445312 111.445312 312.691406 113.511719 313.882812 C 115.578125 315.074219 117.675781 316.21875 119.796875 317.308594 C 121.917969 318.398438 124.066406 319.4375 126.242188 320.421875 C 128.414062 321.40625 130.609375 322.335938 132.828125 323.214844 C 135.050781 324.089844 137.289062 324.914062 139.546875 325.679688 C 141.808594 326.445312 144.085938 327.15625 146.378906 327.8125 C 148.671875 328.46875 150.984375 329.066406 153.308594 329.609375 C 155.628906 330.148438 157.964844 330.632812 160.3125 331.0625 C 162.660156 331.488281 165.019531 331.859375 167.382812 332.167969 C 169.75 332.480469 172.121094 332.734375 174.5 332.929688 C 176.878906 333.125 179.261719 333.261719 181.644531 333.339844 C 184.03125 333.417969 186.414062 333.4375 188.800781 333.398438 C 191.1875 333.359375 193.570312 333.261719 195.953125 333.105469 C 198.332031 332.949219 200.710938 332.734375 203.078125 332.460938 C 205.449219 332.1875 207.8125 331.859375 210.167969 331.46875 C 212.523438 331.082031 214.863281 330.636719 217.199219 330.132812 C 219.53125 329.628906 221.847656 329.066406 224.152344 328.449219 C 226.457031 327.832031 228.746094 327.15625 231.019531 326.425781 C 233.289062 325.699219 235.542969 324.914062 237.777344 324.070312 C 240.011719 323.230469 242.222656 322.335938 244.410156 321.386719 C 246.601562 320.4375 248.765625 319.4375 250.90625 318.378906 C 253.046875 317.324219 255.15625 316.21875 257.242188 315.058594 C 259.328125 313.898438 261.386719 312.691406 263.410156 311.429688 C 265.4375 310.167969 267.433594 308.859375 269.394531 307.503906 C 271.355469 306.144531 273.285156 304.738281 275.175781 303.285156 C 277.070312 301.832031 278.925781 300.335938 280.746094 298.792969 C 282.566406 297.25 284.347656 295.660156 286.089844 294.03125 C 287.828125 292.398438 289.53125 290.726562 291.191406 289.011719 C 292.847656 287.296875 294.464844 285.542969 296.039062 283.746094 C 297.613281 281.953125 299.140625 280.121094 300.625 278.253906 C 302.109375 276.382812 303.542969 274.480469 304.933594 272.539062 C 306.324219 270.597656 307.664062 268.628906 308.957031 266.621094 C 310.25 264.617188 311.496094 262.578125 312.6875 260.511719 C 313.882812 258.445312 315.023438 256.351562 316.113281 254.230469 C 317.203125 252.105469 318.242188 249.960938 319.226562 247.785156 C 320.210938 245.613281 321.140625 243.417969 322.019531 241.195312 C 322.894531 238.976562 323.71875 236.738281 324.484375 234.480469 C 325.25 232.21875 325.960938 229.941406 326.617188 227.648438 C 327.273438 225.355469 327.871094 223.042969 328.414062 220.71875 C 328.953125 218.398438 329.4375 216.0625 329.867188 213.714844 C 330.292969 211.367188 330.664062 209.007812 330.972656 206.644531 C 331.285156 204.277344 331.539062 201.90625 331.734375 199.527344 C 331.929688 197.148438 332.066406 194.769531 332.144531 192.382812 C 332.222656 190 332.242188 187.613281 332.203125 185.226562 C 332.164062 182.839844 332.066406 180.457031 331.910156 178.078125 C 331.753906 175.695312 331.539062 173.320312 331.265625 170.949219 C 330.992188 168.578125 330.664062 166.214844 330.273438 163.863281 C 329.886719 161.507812 329.441406 159.164062 328.9375 156.832031 C 328.433594 154.5 327.871094 152.179688 327.253906 149.875 C 326.636719 147.570312 325.960938 145.285156 325.234375 143.011719 C 324.503906 140.738281 323.71875 138.488281 322.878906 136.253906 C 322.035156 134.019531 321.140625 131.808594 320.191406 129.621094 C 319.242188 127.429688 318.242188 125.265625 317.1875 123.125 C 316.132812 120.984375 315.023438 118.875 313.863281 116.789062 C 312.707031 114.703125 311.496094 112.644531 310.234375 110.621094 C 308.976562 108.59375 307.667969 106.597656 306.308594 104.636719 C 304.953125 102.675781 303.546875 100.746094 302.09375 98.855469 C 300.640625 96.960938 299.144531 95.105469 297.597656 93.285156 C 296.054688 91.464844 294.46875 89.683594 292.835938 87.941406 C 291.207031 86.203125 289.53125 84.5 287.820312 82.839844 C 286.105469 81.183594 284.347656 79.566406 282.554688 77.992188 C 280.761719 76.417969 278.929688 74.890625 277.0625 73.40625 C 275.191406 71.921875 273.289062 70.488281 271.347656 69.097656 C 269.410156 67.707031 267.4375 66.367188 265.429688 65.074219 C 263.425781 63.78125 261.390625 62.535156 259.324219 61.34375 Z M 170.90625 251.765625 L 86.105469 251.765625 L 192.253906 84.089844 L 231.503906 150.867188 Z M 196.570312 251.765625 L 241.828125 172.738281 L 286.734375 251.765625 Z M 196.570312 251.765625 " fill-opacity="1" fill-rule="nonzero"/></svg>