<svg xmlns="http://www.w3.org/2000/svg" xmlns:xlink="http://www.w3.org/1999/xlink" width="500" zoomAndPan="magnify" viewBox="0 0 375 374.999991" height="500" preserveAspectRatio="xMidYMid meet" version="1.0"><defs><clipPath id="85bdd806ec"><path d="M 12 12 L 363 12 L 363 363 L 12 363 Z M 12 12 " clip-rule="nonzero"/></clipPath><clipPath id="26b8af6ac6"><path d="M 357.242188 229.859375 C 333.875 323.613281 238.890625 380.613281 145.269531 357.242188 C 51.511719 333.863281 -5.480469 238.878906 17.890625 145.269531 C 41.261719 51.511719 136.113281 -5.480469 229.863281 17.890625 C 323.484375 41.125 380.605469 136.109375 357.238281 229.863281 L 357.238281 229.851562 Z M 357.242188 229.859375 " clip-rule="nonzero"/></clipPath></defs><rect x="-37.5" width="450" fill="#ffffff" y="-37.499999" height="449.999989" fill-opacity="1"/><rect x="-37.5" width="450" fill="#171717" y="-37.499999" height="449.999989" fill-opacity="1"/><g clip-path="url(#85bdd806ec)"><g clip-path="url(#26b8af6ac6)"><rect x="-37.5" width="450" fill="#a6a6a6" y="-37.499999" height="449.999989" fill-opacity="1"/></g></g><path fill="#171717" d="M 270.839844 165.769531 C 274.257812 142.539062 256.628906 129.964844 232.304688 121.628906 L 240.230469 90.0625 L 221.097656 85.28125 L 213.445312 116.027344 C 208.390625 114.796875 203.199219 113.566406 198.003906 112.476562 L 205.65625 81.589844 L 186.527344 76.808594 L 178.738281 108.238281 C 174.5 107.28125 170.402344 106.324219 166.4375 105.367188 L 166.4375 105.230469 L 139.933594 98.671875 L 134.878906 119.171875 C 134.878906 119.171875 149.089844 122.449219 148.816406 122.585938 C 156.597656 124.5 157.964844 129.691406 157.691406 133.792969 L 148.679688 169.730469 C 149.226562 169.867188 149.902344 170.003906 150.722656 170.414062 C 150.039062 170.277344 149.355469 170.140625 148.679688 169.867188 L 136.109375 220.15625 C 135.152344 222.480469 132.691406 226.03125 127.363281 224.664062 C 127.5 224.9375 113.425781 221.25 113.425781 221.25 L 103.859375 243.25 L 128.867188 249.535156 C 133.511719 250.765625 138.023438 251.859375 142.53125 253.089844 L 134.605469 284.929688 L 153.730469 289.710938 L 161.65625 258.144531 C 166.847656 259.511719 172.042969 260.878906 176.960938 262.109375 L 169.171875 293.539062 L 188.300781 298.320312 L 196.226562 266.480469 C 229.023438 272.628906 253.621094 270.171875 263.871094 240.515625 C 272.207031 216.738281 263.460938 202.9375 246.242188 193.917969 C 258.949219 191.050781 268.378906 182.714844 270.839844 165.769531 Z M 226.976562 227.261719 C 221.097656 251.039062 180.921875 238.195312 167.941406 234.914062 L 178.464844 192.6875 C 191.445312 195.96875 233.261719 202.390625 226.976562 227.261719 Z M 232.988281 165.359375 C 227.519531 187.085938 194.179688 176.019531 183.382812 173.285156 L 192.949219 135.023438 C 203.742188 137.753906 238.589844 142.8125 232.988281 165.359375 Z M 232.988281 165.359375 " fill-opacity="1" fill-rule="nonzero"/></svg>