<svg xmlns="http://www.w3.org/2000/svg" xmlns:xlink="http://www.w3.org/1999/xlink" width="500" zoomAndPan="magnify" viewBox="0 0 375 374.999991" height="500" preserveAspectRatio="xMidYMid meet" version="1.0"><rect x="-37.5" width="450" fill="#ffffff" y="-37.499999" height="449.999989" fill-opacity="1"/><rect x="-37.5" width="450" fill="#171717" y="-37.499999" height="449.999989" fill-opacity="1"/><path fill="#737373" d="M 190.207031 368.402344 C 186.339844 368.402344 182.480469 368.277344 178.621094 368.027344 C 174.765625 367.777344 170.917969 367.402344 167.085938 366.898438 C 163.253906 366.398438 159.441406 365.769531 155.652344 365.019531 C 151.859375 364.265625 148.097656 363.390625 144.363281 362.394531 C 140.628906 361.394531 136.929688 360.277344 133.269531 359.035156 C 129.609375 357.792969 125.992188 356.4375 122.421875 354.957031 C 118.847656 353.480469 115.328125 351.886719 111.859375 350.179688 C 108.394531 348.472656 104.984375 346.652344 101.636719 344.722656 C 98.289062 342.789062 95.007812 340.753906 91.792969 338.605469 C 88.578125 336.460938 85.4375 334.210938 82.367188 331.859375 C 79.300781 329.507812 76.3125 327.058594 73.40625 324.511719 C 70.5 321.964844 67.679688 319.324219 64.945312 316.59375 C 62.210938 313.859375 59.566406 311.042969 57.019531 308.136719 C 54.46875 305.230469 52.015625 302.246094 49.660156 299.179688 C 47.308594 296.113281 45.054688 292.972656 42.90625 289.761719 C 40.757812 286.546875 38.71875 283.269531 36.785156 279.921875 C 34.851562 276.574219 33.027344 273.167969 31.316406 269.703125 C 29.605469 266.234375 28.011719 262.714844 26.53125 259.144531 C 25.050781 255.574219 23.6875 251.960938 22.445312 248.300781 C 21.203125 244.640625 20.082031 240.945312 19.078125 237.210938 C 18.078125 233.476562 17.199219 229.714844 16.445312 225.921875 C 15.691406 222.132812 15.058594 218.320312 14.554688 214.488281 C 14.046875 210.65625 13.667969 206.8125 13.414062 202.953125 C 13.164062 199.097656 13.035156 195.238281 13.035156 191.371094 C 13.035156 187.507812 13.160156 183.644531 13.414062 179.789062 C 13.664062 175.929688 14.042969 172.085938 14.546875 168.253906 C 15.050781 164.421875 15.679688 160.609375 16.433594 156.816406 C 17.1875 153.027344 18.0625 149.265625 19.0625 145.53125 C 20.0625 141.796875 21.183594 138.101562 22.425781 134.441406 C 23.671875 130.78125 25.03125 127.164062 26.507812 123.59375 C 27.988281 120.019531 29.582031 116.503906 31.292969 113.035156 C 33.003906 109.570312 34.824219 106.160156 36.757812 102.8125 C 38.203125 100.300781 39.710938 97.828125 41.28125 95.386719 C 42.851562 92.949219 44.480469 90.550781 46.164062 88.191406 C 47.851562 85.835938 49.597656 83.519531 51.398438 81.246094 C 53.199219 78.972656 55.054688 76.746094 56.964844 74.566406 C 58.875 72.382812 60.835938 70.25 62.851562 68.164062 C 64.867188 66.078125 66.933594 64.046875 69.046875 62.0625 C 71.164062 60.078125 73.324219 58.148438 75.535156 56.269531 C 77.746094 54.390625 80 52.570312 82.300781 50.804688 C 84.597656 49.039062 86.941406 47.328125 89.324219 45.675781 C 91.707031 44.023438 94.128906 42.433594 96.59375 40.902344 C 99.054688 39.367188 101.550781 37.898438 104.085938 36.488281 C 106.621094 35.078125 109.1875 33.730469 111.785156 32.445312 C 114.386719 31.164062 117.015625 29.945312 119.675781 28.789062 C 122.335938 27.632812 125.023438 26.546875 127.738281 25.523438 C 130.449219 24.5 133.1875 23.546875 135.949219 22.65625 C 138.707031 21.769531 141.488281 20.949219 144.289062 20.199219 C 147.089844 19.449219 149.90625 18.765625 152.742188 18.152344 C 155.574219 17.539062 158.421875 16.996094 161.285156 16.523438 C 164.144531 16.050781 167.015625 15.648438 169.894531 15.316406 C 172.777344 14.984375 175.664062 14.722656 178.558594 14.53125 C 181.449219 14.34375 184.347656 14.222656 187.246094 14.175781 C 190.144531 14.128906 193.042969 14.152344 195.941406 14.246094 C 198.839844 14.339844 201.734375 14.503906 204.625 14.742188 C 207.515625 14.980469 210.398438 15.285156 213.273438 15.664062 C 216.148438 16.042969 219.011719 16.492188 221.863281 17.011719 C 224.71875 17.53125 227.554688 18.117188 230.378906 18.777344 C 233.203125 19.4375 236.011719 20.164062 238.796875 20.960938 C 241.585938 21.757812 244.351562 22.621094 247.097656 23.554688 C 249.84375 24.484375 252.566406 25.484375 255.261719 26.550781 C 257.960938 27.617188 260.628906 28.75 263.269531 29.945312 C 265.910156 31.144531 268.519531 32.402344 271.101562 33.730469 C 273.679688 35.054688 276.222656 36.441406 278.734375 37.894531 C 282.507812 40.0625 286.199219 42.367188 289.804688 44.808594 C 293.410156 47.253906 296.917969 49.824219 300.335938 52.523438 C 303.75 55.226562 307.0625 58.046875 310.269531 60.992188 C 313.476562 63.9375 316.570312 66.996094 319.550781 70.171875 C 322.53125 73.34375 325.390625 76.625 328.132812 80.007812 C 330.871094 83.390625 333.480469 86.875 335.964844 90.449219 C 338.445312 94.027344 340.792969 97.691406 343.007812 101.441406 C 345.21875 105.191406 347.289062 109.019531 349.21875 112.921875 C 351.148438 116.824219 352.933594 120.792969 354.570312 124.828125 C 356.207031 128.863281 357.695312 132.953125 359.03125 137.097656 C 360.367188 141.238281 361.546875 145.429688 362.574219 149.660156 C 363.597656 153.890625 364.46875 158.152344 365.179688 162.449219 C 365.890625 166.746094 366.445312 171.0625 366.839844 175.398438 C 367.234375 179.734375 367.464844 184.078125 367.539062 188.433594 C 367.613281 192.785156 367.523438 197.136719 367.277344 201.484375 C 367.027344 205.828125 366.621094 210.160156 366.054688 214.480469 C 365.484375 218.796875 364.761719 223.085938 363.875 227.351562 C 362.992188 231.613281 361.953125 235.839844 360.757812 240.023438 C 359.5625 244.210938 358.210938 248.347656 356.710938 252.4375 C 355.210938 256.523438 353.5625 260.550781 351.761719 264.515625 C 349.964844 268.480469 348.023438 272.375 345.9375 276.195312 C 343.855469 280.019531 341.628906 283.757812 339.269531 287.417969 C 336.90625 291.078125 334.414062 294.644531 331.792969 298.117188 C 329.167969 301.589844 326.417969 304.964844 323.546875 308.234375 C 320.671875 311.507812 317.683594 314.667969 314.574219 317.71875 C 311.46875 320.769531 308.253906 323.703125 304.933594 326.519531 C 301.609375 329.332031 298.1875 332.019531 294.667969 334.582031 C 291.144531 337.140625 287.535156 339.570312 283.835938 341.867188 C 280.136719 344.160156 276.355469 346.316406 272.496094 348.332031 C 268.636719 350.347656 264.707031 352.21875 260.710938 353.945312 C 256.714844 355.671875 252.660156 357.25 248.546875 358.675781 C 244.433594 360.105469 240.269531 361.378906 236.0625 362.5 C 221.035156 366.457031 205.75 368.425781 190.207031 368.402344 Z M 190.207031 26.089844 C 186.898438 26.085938 183.597656 26.183594 180.296875 26.382812 C 176.996094 26.578125 173.707031 26.871094 170.425781 27.265625 C 167.140625 27.660156 163.875 28.152344 160.621094 28.742188 C 157.367188 29.332031 154.136719 30.019531 150.925781 30.804688 C 147.714844 31.585938 144.527344 32.46875 141.371094 33.441406 C 138.210938 34.417969 135.085938 35.488281 131.992188 36.648438 C 128.894531 37.8125 125.839844 39.066406 122.820312 40.414062 C 119.800781 41.757812 116.824219 43.195312 113.890625 44.71875 C 110.957031 46.246094 108.074219 47.855469 105.238281 49.554688 C 102.402344 51.25 99.617188 53.03125 96.886719 54.898438 C 94.160156 56.761719 91.488281 58.707031 88.875 60.734375 C 86.261719 62.757812 83.710938 64.859375 81.226562 67.039062 C 78.738281 69.21875 76.320312 71.46875 73.96875 73.792969 C 71.617188 76.113281 69.335938 78.507812 67.128906 80.96875 C 64.921875 83.425781 62.789062 85.953125 60.734375 88.539062 C 58.675781 91.128906 56.699219 93.777344 54.800781 96.484375 C 52.902344 99.191406 51.089844 101.949219 49.355469 104.765625 C 47.625 107.582031 45.980469 110.449219 44.417969 113.363281 C 42.859375 116.277344 41.386719 119.234375 40.003906 122.238281 C 38.625 125.242188 37.332031 128.28125 36.132812 131.363281 C 34.933594 134.445312 33.824219 137.558594 32.8125 140.703125 C 31.800781 143.851562 30.882812 147.023438 30.058594 150.226562 C 29.238281 153.429688 28.511719 156.652344 27.882812 159.898438 C 27.253906 163.144531 26.722656 166.402344 26.289062 169.679688 C 25.855469 172.957031 25.519531 176.246094 25.285156 179.542969 C 25.050781 182.839844 24.910156 186.140625 24.875 189.449219 C 24.835938 192.753906 24.898438 196.058594 25.058594 199.359375 C 25.21875 202.660156 25.476562 205.953125 25.835938 209.242188 C 26.191406 212.527344 26.648438 215.800781 27.203125 219.058594 C 27.757812 222.316406 28.410156 225.558594 29.160156 228.777344 C 29.90625 231.996094 30.753906 235.191406 31.691406 238.359375 C 32.632812 241.53125 33.667969 244.667969 34.796875 247.773438 C 35.925781 250.882812 37.148438 253.953125 38.460938 256.988281 C 39.773438 260.019531 41.175781 263.011719 42.667969 265.960938 C 44.160156 268.910156 45.742188 271.8125 47.410156 274.667969 C 49.074219 277.523438 50.824219 280.324219 52.660156 283.074219 C 54.496094 285.824219 56.410156 288.515625 58.410156 291.152344 C 60.40625 293.785156 62.480469 296.359375 64.628906 298.867188 C 66.78125 301.378906 69.003906 303.824219 71.304688 306.199219 C 73.601562 308.578125 75.96875 310.882812 78.402344 313.117188 C 80.839844 315.351562 83.339844 317.511719 85.90625 319.597656 C 88.472656 321.679688 91.097656 323.6875 93.78125 325.613281 C 96.46875 327.539062 99.210938 329.386719 102.007812 331.148438 C 104.804688 332.910156 107.652344 334.585938 110.546875 336.179688 C 113.445312 337.769531 116.386719 339.273438 119.375 340.691406 C 122.363281 342.105469 125.390625 343.429688 128.457031 344.664062 C 131.523438 345.894531 134.625 347.035156 137.761719 348.082031 C 140.898438 349.132812 144.0625 350.082031 147.253906 350.941406 C 150.445312 351.796875 153.660156 352.558594 156.898438 353.222656 C 160.136719 353.886719 163.394531 354.457031 166.664062 354.925781 C 169.9375 355.394531 173.222656 355.765625 176.515625 356.035156 C 179.8125 356.308594 183.109375 356.480469 186.414062 356.554688 C 189.71875 356.628906 193.023438 356.605469 196.328125 356.480469 C 199.632812 356.355469 202.929688 356.132812 206.21875 355.808594 C 209.507812 355.488281 212.785156 355.066406 216.050781 354.550781 C 219.316406 354.03125 222.5625 353.414062 225.789062 352.699219 C 229.015625 351.988281 232.222656 351.175781 235.398438 350.269531 C 238.578125 349.367188 241.730469 348.363281 244.847656 347.269531 C 247.96875 346.175781 251.050781 344.988281 254.097656 343.707031 C 257.148438 342.429688 260.152344 341.058594 263.121094 339.597656 C 266.085938 338.136719 269.003906 336.589844 271.878906 334.953125 C 274.75 333.316406 277.570312 331.597656 280.339844 329.792969 C 283.109375 327.988281 285.824219 326.101562 288.480469 324.132812 C 291.136719 322.167969 293.730469 320.121094 296.265625 317.996094 C 298.796875 315.875 301.265625 313.675781 303.667969 311.40625 C 306.070312 309.132812 308.402344 306.792969 310.664062 304.382812 C 312.921875 301.96875 315.109375 299.492188 317.222656 296.949219 C 319.335938 294.40625 321.371094 291.804688 323.328125 289.140625 C 325.28125 286.472656 327.15625 283.753906 328.949219 280.976562 C 330.742188 278.199219 332.453125 275.371094 334.074219 272.488281 C 335.699219 269.609375 337.234375 266.683594 338.679688 263.710938 C 340.128906 260.742188 341.488281 257.726562 342.753906 254.675781 C 344.019531 251.621094 345.195312 248.53125 346.277344 245.410156 C 347.359375 242.285156 348.34375 239.132812 349.238281 235.949219 C 350.128906 232.765625 350.925781 229.558594 351.625 226.328125 C 352.324219 223.097656 352.925781 219.847656 353.433594 216.582031 C 353.9375 213.3125 354.34375 210.035156 354.652344 206.742188 C 354.960938 203.453125 355.167969 200.152344 355.277344 196.851562 C 355.390625 193.546875 355.398438 190.242188 355.3125 186.9375 C 355.222656 183.632812 355.035156 180.332031 354.75 177.039062 C 354.464844 173.746094 354.078125 170.464844 353.597656 167.195312 C 353.113281 163.925781 352.53125 160.671875 351.855469 157.4375 C 351.175781 154.199219 350.402344 150.988281 349.53125 147.800781 C 348.660156 144.609375 347.695312 141.449219 346.632812 138.320312 C 345.574219 135.1875 344.417969 132.09375 343.171875 129.03125 C 341.925781 125.96875 340.589844 122.945312 339.160156 119.964844 C 337.734375 116.984375 336.21875 114.046875 334.613281 111.15625 C 333.007812 108.265625 331.320312 105.425781 329.546875 102.636719 C 327.769531 99.847656 325.914062 97.117188 323.976562 94.4375 C 322.035156 91.761719 320.019531 89.144531 317.925781 86.585938 C 315.828125 84.027344 313.660156 81.539062 311.414062 79.109375 C 309.167969 76.683594 306.851562 74.328125 304.464844 72.039062 C 302.078125 69.753906 299.625 67.539062 297.105469 65.398438 C 294.585938 63.257812 292.007812 61.195312 289.363281 59.210938 C 286.71875 57.226562 284.019531 55.320312 281.261719 53.496094 C 278.503906 51.675781 275.695312 49.933594 272.832031 48.28125 C 266.585938 44.648438 260.128906 41.445312 253.460938 38.671875 C 246.792969 35.894531 239.96875 33.570312 232.992188 31.695312 C 226.015625 29.824219 218.949219 28.417969 211.785156 27.476562 C 204.621094 26.539062 197.429688 26.078125 190.207031 26.089844 Z M 190.207031 26.089844 " fill-opacity="1" fill-rule="nonzero"/><path fill="#737373" d="M 263.980469 63.566406 C 261.886719 62.359375 259.769531 61.203125 257.621094 60.101562 C 255.472656 58.996094 253.300781 57.945312 251.101562 56.949219 C 248.902344 55.953125 246.679688 55.011719 244.433594 54.125 C 242.1875 53.234375 239.921875 52.40625 237.632812 51.628906 C 235.347656 50.851562 233.042969 50.132812 230.722656 49.46875 C 228.398438 48.804688 226.0625 48.199219 223.710938 47.652344 C 221.359375 47.101562 218.996094 46.613281 216.621094 46.179688 C 214.242188 45.75 211.859375 45.375 209.464844 45.058594 C 207.070312 44.742188 204.671875 44.488281 202.265625 44.289062 C 199.855469 44.09375 197.445312 43.953125 195.035156 43.875 C 192.621094 43.796875 190.207031 43.777344 187.792969 43.816406 C 185.378906 43.855469 182.964844 43.953125 180.554688 44.113281 C 178.144531 44.269531 175.742188 44.488281 173.34375 44.761719 C 170.945312 45.039062 168.554688 45.371094 166.171875 45.765625 C 163.789062 46.160156 161.417969 46.609375 159.054688 47.121094 C 156.695312 47.628906 154.347656 48.199219 152.015625 48.824219 C 149.683594 49.449219 147.367188 50.128906 145.070312 50.867188 C 142.769531 51.605469 140.492188 52.402344 138.230469 53.25 C 135.972656 54.101562 133.734375 55.007812 131.519531 55.96875 C 129.300781 56.929688 127.113281 57.941406 124.945312 59.011719 C 122.78125 60.078125 120.640625 61.199219 118.53125 62.371094 C 116.421875 63.546875 114.339844 64.769531 112.289062 66.042969 C 110.238281 67.320312 108.21875 68.644531 106.234375 70.019531 C 104.25 71.390625 102.296875 72.8125 100.382812 74.285156 C 98.46875 75.753906 96.589844 77.269531 94.746094 78.832031 C 92.90625 80.394531 91.105469 82 89.339844 83.652344 C 87.578125 85.300781 85.859375 86.996094 84.179688 88.730469 C 82.5 90.464844 80.863281 92.242188 79.269531 94.054688 C 77.679688 95.871094 76.132812 97.726562 74.632812 99.617188 C 73.128906 101.507812 71.675781 103.433594 70.269531 105.398438 C 68.863281 107.359375 67.503906 109.355469 66.195312 111.386719 C 64.886719 113.417969 63.628906 115.476562 62.421875 117.566406 C 61.214844 119.660156 60.058594 121.777344 58.957031 123.925781 C 57.851562 126.074219 56.804688 128.246094 55.804688 130.449219 C 54.808594 132.648438 53.867188 134.871094 52.980469 137.117188 C 52.09375 139.359375 51.261719 141.628906 50.484375 143.914062 C 49.707031 146.199219 48.988281 148.503906 48.324219 150.828125 C 47.664062 153.148438 47.058594 155.484375 46.507812 157.835938 C 45.960938 160.1875 45.46875 162.550781 45.039062 164.929688 C 44.605469 167.304688 44.230469 169.6875 43.917969 172.082031 C 43.601562 174.476562 43.34375 176.878906 43.148438 179.285156 C 42.949219 181.691406 42.8125 184.101562 42.734375 186.515625 C 42.652344 188.929688 42.632812 191.339844 42.671875 193.757812 C 42.710938 196.171875 42.8125 198.582031 42.96875 200.992188 C 43.128906 203.402344 43.34375 205.804688 43.621094 208.203125 C 43.894531 210.605469 44.230469 212.996094 44.625 215.378906 C 45.015625 217.757812 45.46875 220.132812 45.976562 222.492188 C 46.488281 224.851562 47.054688 227.199219 47.679688 229.53125 C 48.304688 231.863281 48.988281 234.179688 49.726562 236.476562 C 50.464844 238.777344 51.257812 241.054688 52.109375 243.316406 C 52.960938 245.578125 53.867188 247.8125 54.828125 250.03125 C 55.785156 252.246094 56.800781 254.4375 57.867188 256.601562 C 58.9375 258.765625 60.058594 260.90625 61.230469 263.015625 C 62.402344 265.128906 63.628906 267.207031 64.902344 269.257812 C 66.175781 271.308594 67.503906 273.328125 68.875 275.3125 C 70.25 277.296875 71.671875 279.25 73.144531 281.164062 C 74.613281 283.082031 76.128906 284.957031 77.691406 286.800781 C 79.253906 288.640625 80.859375 290.445312 82.511719 292.207031 C 84.160156 293.96875 85.855469 295.6875 87.589844 297.367188 C 89.324219 299.046875 91.101562 300.683594 92.914062 302.277344 C 94.730469 303.867188 96.585938 305.414062 98.476562 306.914062 C 100.367188 308.417969 102.292969 309.871094 104.257812 311.277344 C 106.21875 312.683594 108.214844 314.042969 110.246094 315.351562 C 112.273438 316.660156 114.335938 317.917969 116.425781 319.125 C 118.519531 320.332031 120.636719 321.488281 122.785156 322.589844 C 124.933594 323.695312 127.105469 324.742188 129.308594 325.738281 C 131.507812 326.738281 133.730469 327.679688 135.972656 328.566406 C 138.21875 329.453125 140.488281 330.285156 142.773438 331.0625 C 145.058594 331.835938 147.363281 332.558594 149.6875 333.21875 C 152.007812 333.882812 154.34375 334.488281 156.695312 335.039062 C 159.046875 335.585938 161.410156 336.078125 163.789062 336.507812 C 166.164062 336.941406 168.546875 337.316406 170.941406 337.628906 C 173.335938 337.945312 175.738281 338.203125 178.144531 338.398438 C 180.550781 338.597656 182.960938 338.734375 185.375 338.8125 C 187.785156 338.890625 190.199219 338.910156 192.617188 338.871094 C 195.03125 338.832031 197.441406 338.734375 199.851562 338.578125 C 202.261719 338.417969 204.664062 338.203125 207.0625 337.925781 C 209.464844 337.648438 211.855469 337.316406 214.238281 336.921875 C 216.617188 336.527344 218.992188 336.078125 221.351562 335.566406 C 223.710938 335.058594 226.058594 334.488281 228.390625 333.863281 C 230.722656 333.238281 233.039062 332.558594 235.335938 331.820312 C 237.636719 331.082031 239.914062 330.285156 242.175781 329.433594 C 244.4375 328.585938 246.671875 327.679688 248.890625 326.71875 C 251.105469 325.757812 253.296875 324.742188 255.460938 323.675781 C 257.625 322.609375 259.765625 321.488281 261.875 320.3125 C 263.984375 319.140625 266.066406 317.917969 268.117188 316.640625 C 270.167969 315.367188 272.1875 314.042969 274.171875 312.667969 C 276.15625 311.292969 278.109375 309.871094 280.023438 308.402344 C 281.9375 306.929688 283.816406 305.414062 285.660156 303.851562 C 287.5 302.289062 289.300781 300.683594 291.066406 299.035156 C 292.828125 297.382812 294.546875 295.691406 296.226562 293.953125 C 297.90625 292.21875 299.542969 290.445312 301.132812 288.628906 C 302.726562 286.8125 304.273438 284.960938 305.773438 283.066406 C 307.277344 281.175781 308.730469 279.25 310.136719 277.285156 C 311.542969 275.324219 312.898438 273.328125 314.207031 271.296875 C 315.515625 269.269531 316.773438 267.207031 317.980469 265.117188 C 319.191406 263.027344 320.34375 260.90625 321.449219 258.757812 C 322.550781 256.609375 323.601562 254.4375 324.597656 252.238281 C 325.59375 250.039062 326.535156 247.816406 327.425781 245.570312 C 328.3125 243.324219 329.144531 241.058594 329.917969 238.769531 C 330.695312 236.484375 331.414062 234.179688 332.078125 231.859375 C 332.742188 229.535156 333.347656 227.199219 333.894531 224.847656 C 334.445312 222.496094 334.933594 220.132812 335.367188 217.757812 C 335.796875 215.382812 336.171875 212.996094 336.488281 210.601562 C 336.800781 208.210938 337.058594 205.808594 337.253906 203.402344 C 337.453125 200.996094 337.589844 198.585938 337.671875 196.171875 C 337.75 193.757812 337.769531 191.34375 337.730469 188.929688 C 337.691406 186.515625 337.589844 184.105469 337.433594 181.695312 C 337.277344 179.285156 337.058594 176.882812 336.78125 174.484375 C 336.507812 172.082031 336.171875 169.691406 335.777344 167.3125 C 335.386719 164.929688 334.933594 162.558594 334.425781 160.195312 C 333.914062 157.835938 333.347656 155.488281 332.722656 153.15625 C 332.097656 150.824219 331.414062 148.507812 330.675781 146.210938 C 329.9375 143.910156 329.144531 141.632812 328.292969 139.371094 C 327.441406 137.113281 326.539062 134.875 325.578125 132.660156 C 324.617188 130.445312 323.601562 128.253906 322.535156 126.085938 C 321.464844 123.921875 320.347656 121.785156 319.171875 119.671875 C 318 117.5625 316.777344 115.480469 315.5 113.429688 C 314.226562 111.382812 312.902344 109.363281 311.527344 107.378906 C 310.152344 105.390625 308.730469 103.441406 307.261719 101.527344 C 305.792969 99.609375 304.273438 97.730469 302.714844 95.890625 C 301.152344 94.046875 299.542969 92.246094 297.894531 90.484375 C 296.242188 88.722656 294.550781 87 292.816406 85.320312 C 291.082031 83.640625 289.304688 82.007812 287.488281 80.414062 C 285.675781 78.824219 283.820312 77.277344 281.929688 75.773438 C 280.039062 74.273438 278.113281 72.820312 276.148438 71.414062 C 274.1875 70.007812 272.191406 68.648438 270.160156 67.339844 C 268.132812 66.03125 266.070312 64.773438 263.980469 63.566406 Z M 78.363281 198.601562 C 77.832031 198.605469 77.304688 198.558594 76.785156 198.457031 C 76.261719 198.359375 75.753906 198.207031 75.261719 198.007812 C 74.769531 197.808594 74.300781 197.5625 73.855469 197.269531 C 73.414062 196.976562 73 196.644531 72.621094 196.269531 C 72.246094 195.894531 71.90625 195.488281 71.609375 195.046875 C 71.3125 194.609375 71.058594 194.140625 70.851562 193.652344 C 70.644531 193.160156 70.488281 192.65625 70.382812 192.136719 C 70.277344 191.613281 70.222656 191.089844 70.21875 190.554688 C 70.21875 190.023438 70.265625 189.496094 70.367188 188.976562 C 70.46875 188.453125 70.621094 187.945312 70.820312 187.453125 C 71.023438 186.960938 71.269531 186.496094 71.566406 186.050781 C 71.859375 185.609375 72.191406 185.199219 72.566406 184.820312 C 72.941406 184.441406 73.351562 184.105469 73.789062 183.808594 C 74.230469 183.511719 74.699219 183.261719 75.1875 183.054688 C 75.679688 182.851562 76.183594 182.695312 76.707031 182.589844 C 77.226562 182.484375 77.753906 182.433594 78.285156 182.429688 C 78.816406 182.429688 79.34375 182.480469 79.867188 182.582031 C 80.386719 182.6875 80.894531 182.839844 81.386719 183.042969 C 81.878906 183.242188 82.34375 183.492188 82.789062 183.785156 C 83.230469 184.082031 83.640625 184.417969 84.015625 184.792969 C 84.390625 185.167969 84.726562 185.578125 85.023438 186.019531 C 85.320312 186.460938 85.570312 186.925781 85.773438 187.417969 C 85.976562 187.910156 86.132812 188.414062 86.234375 188.9375 C 86.339844 189.457031 86.390625 189.984375 86.390625 190.515625 C 86.390625 191.046875 86.339844 191.570312 86.238281 192.085938 C 86.132812 192.605469 85.984375 193.109375 85.78125 193.597656 C 85.578125 194.085938 85.332031 194.550781 85.039062 194.992188 C 84.75 195.429688 84.417969 195.839844 84.042969 196.214844 C 83.671875 196.589844 83.265625 196.921875 82.828125 197.21875 C 82.390625 197.515625 81.925781 197.765625 81.441406 197.96875 C 80.953125 198.175781 80.449219 198.332031 79.933594 198.4375 C 79.414062 198.542969 78.894531 198.597656 78.363281 198.601562 Z M 96.070312 127.78125 C 96.527344 127.289062 97.03125 126.847656 97.578125 126.453125 C 98.121094 126.0625 98.703125 125.726562 99.3125 125.449219 C 99.925781 125.171875 100.558594 124.957031 101.210938 124.800781 C 101.867188 124.648438 102.53125 124.5625 103.203125 124.539062 C 103.875 124.519531 104.542969 124.5625 105.203125 124.671875 C 105.867188 124.78125 106.511719 124.957031 107.140625 125.191406 C 107.769531 125.429688 108.371094 125.726562 108.941406 126.082031 C 109.511719 126.4375 110.039062 126.847656 110.53125 127.308594 C 111.523438 128.222656 112.300781 129.292969 112.863281 130.523438 C 113.425781 131.75 113.730469 133.039062 113.777344 134.390625 C 113.816406 135.746094 113.59375 137.054688 113.113281 138.324219 C 112.632812 139.589844 111.929688 140.71875 111.003906 141.707031 C 110.046875 142.75 108.921875 143.550781 107.625 144.117188 C 106.332031 144.679688 104.976562 144.960938 103.566406 144.953125 C 102.273438 144.960938 101.027344 144.730469 99.824219 144.261719 C 98.621094 143.792969 97.546875 143.117188 96.601562 142.238281 C 95.613281 141.308594 94.835938 140.226562 94.273438 138.988281 C 93.710938 137.753906 93.40625 136.457031 93.355469 135.097656 C 93.351562 133.75 93.605469 132.453125 94.117188 131.207031 C 94.628906 129.957031 95.359375 128.855469 96.304688 127.898438 Z M 110.824219 256.796875 C 109.878906 257.671875 108.800781 258.34375 107.601562 258.8125 C 106.398438 259.28125 105.152344 259.515625 103.859375 259.511719 L 103.507812 259.511719 C 103.089844 259.496094 102.671875 259.457031 102.257812 259.394531 C 101.847656 259.328125 101.4375 259.238281 101.035156 259.125 C 100.632812 259.007812 100.238281 258.871094 99.855469 258.707031 C 99.46875 258.542969 99.09375 258.359375 98.734375 258.148438 C 98.371094 257.941406 98.023438 257.710938 97.6875 257.457031 C 97.355469 257.207031 97.035156 256.933594 96.734375 256.644531 C 96.433594 256.351562 96.152344 256.042969 95.890625 255.71875 C 95.628906 255.394531 95.386719 255.050781 95.164062 254.695312 C 94.945312 254.34375 94.746094 253.972656 94.570312 253.59375 C 94.394531 253.214844 94.242188 252.824219 94.113281 252.429688 C 93.988281 252.03125 93.882812 251.625 93.804688 251.214844 C 93.726562 250.800781 93.675781 250.386719 93.648438 249.972656 C 93.621094 249.554688 93.617188 249.136719 93.640625 248.71875 C 93.667969 248.300781 93.714844 247.886719 93.789062 247.472656 C 93.867188 247.0625 93.964844 246.65625 94.089844 246.257812 C 94.214844 245.859375 94.363281 245.46875 94.539062 245.085938 C 94.710938 244.707031 94.90625 244.335938 95.125 243.980469 C 95.34375 243.625 95.582031 243.28125 95.839844 242.953125 C 96.101562 242.625 96.382812 242.316406 96.679688 242.023438 C 96.976562 241.730469 97.292969 241.457031 97.625 241.199219 C 97.957031 240.945312 98.304688 240.714844 98.664062 240.5 C 99.023438 240.289062 99.398438 240.101562 99.78125 239.933594 C 100.164062 239.769531 100.558594 239.625 100.960938 239.507812 C 101.359375 239.390625 101.769531 239.296875 102.179688 239.230469 C 102.59375 239.160156 103.007812 239.121094 103.425781 239.101562 C 103.847656 239.085938 104.261719 239.09375 104.679688 239.128906 C 105.097656 239.164062 105.511719 239.222656 105.921875 239.308594 C 106.328125 239.394531 106.730469 239.503906 107.128906 239.640625 C 107.523438 239.773438 107.910156 239.933594 108.289062 240.117188 C 108.664062 240.300781 109.027344 240.503906 109.378906 240.730469 C 109.730469 240.957031 110.066406 241.207031 110.386719 241.472656 C 110.707031 241.742188 111.011719 242.03125 111.296875 242.335938 C 111.765625 242.824219 112.183594 243.351562 112.550781 243.917969 C 112.917969 244.488281 113.222656 245.085938 113.472656 245.71875 C 113.71875 246.347656 113.90625 246.996094 114.027344 247.660156 C 114.144531 248.324219 114.203125 248.996094 114.191406 249.671875 C 114.179688 250.351562 114.101562 251.019531 113.960938 251.679688 C 113.816406 252.339844 113.613281 252.984375 113.34375 253.605469 C 113.074219 254.226562 112.75 254.8125 112.363281 255.371094 C 111.980469 255.925781 111.546875 256.441406 111.0625 256.914062 Z M 103.917969 200.609375 C 103.25 200.609375 102.585938 200.542969 101.929688 200.414062 C 101.269531 200.28125 100.632812 200.089844 100.011719 199.832031 C 99.394531 199.574219 98.804688 199.261719 98.246094 198.886719 C 97.691406 198.515625 97.175781 198.09375 96.699219 197.617188 C 96.226562 197.144531 95.800781 196.628906 95.429688 196.070312 C 95.058594 195.515625 94.742188 194.925781 94.488281 194.304688 C 94.230469 193.6875 94.035156 193.046875 93.90625 192.390625 C 93.773438 191.734375 93.710938 191.070312 93.710938 190.398438 C 93.710938 189.726562 93.773438 189.0625 93.90625 188.40625 C 94.035156 187.75 94.230469 187.109375 94.488281 186.492188 C 94.742188 185.871094 95.058594 185.285156 95.429688 184.726562 C 95.800781 184.167969 96.226562 183.652344 96.699219 183.179688 C 97.175781 182.703125 97.691406 182.28125 98.246094 181.910156 C 98.804688 181.535156 99.394531 181.222656 100.011719 180.964844 C 100.632812 180.710938 101.269531 180.515625 101.929688 180.382812 C 102.585938 180.253906 103.25 180.1875 103.917969 180.1875 C 104.589844 180.1875 105.253906 180.253906 105.910156 180.382812 C 106.570312 180.515625 107.207031 180.710938 107.828125 180.964844 C 108.445312 181.222656 109.035156 181.535156 109.59375 181.910156 C 110.148438 182.28125 110.664062 182.703125 111.140625 183.179688 C 111.613281 183.652344 112.035156 184.167969 112.410156 184.726562 C 112.78125 185.285156 113.097656 185.871094 113.351562 186.492188 C 113.609375 187.109375 113.804688 187.75 113.933594 188.40625 C 114.066406 189.0625 114.128906 189.726562 114.128906 190.398438 C 114.136719 191.0625 114.082031 191.722656 113.960938 192.378906 C 113.839844 193.03125 113.65625 193.667969 113.410156 194.289062 C 113.164062 194.90625 112.859375 195.496094 112.5 196.054688 C 112.140625 196.613281 111.726562 197.132812 111.265625 197.613281 C 110.800781 198.089844 110.296875 198.519531 109.753906 198.902344 C 109.207031 199.28125 108.628906 199.605469 108.019531 199.871094 C 107.410156 200.136719 106.777344 200.34375 106.128906 200.488281 C 105.480469 200.632812 104.820312 200.710938 104.15625 200.726562 Z M 258.609375 162.1875 C 257.566406 163.152344 256.378906 163.894531 255.054688 164.414062 C 253.730469 164.933594 252.359375 165.195312 250.9375 165.199219 L 250.523438 165.199219 C 249.429688 165.128906 248.367188 164.90625 247.339844 164.527344 C 246.308594 164.152344 245.355469 163.636719 244.476562 162.980469 C 243.597656 162.328125 242.828125 161.5625 242.171875 160.683594 C 241.515625 159.808594 240.996094 158.855469 240.613281 157.828125 C 240.234375 156.800781 240.007812 155.742188 239.933594 154.648438 C 239.859375 153.554688 239.941406 152.472656 240.183594 151.402344 C 240.421875 150.332031 240.8125 149.320312 241.34375 148.363281 C 241.878906 147.40625 242.539062 146.546875 243.324219 145.78125 C 243.867188 145.273438 244.453125 144.828125 245.082031 144.4375 C 245.714844 144.046875 246.375 143.722656 247.070312 143.460938 C 247.765625 143.203125 248.480469 143.011719 249.210938 142.894531 C 249.945312 142.773438 250.679688 142.726562 251.421875 142.753906 C 252.164062 142.78125 252.894531 142.878906 253.617188 143.046875 C 254.339844 143.21875 255.035156 143.457031 255.710938 143.765625 C 256.386719 144.074219 257.023438 144.445312 257.625 144.875 C 258.226562 145.308594 258.78125 145.796875 259.289062 146.339844 C 259.792969 146.882812 260.242188 147.46875 260.632812 148.101562 C 261.023438 148.730469 261.347656 149.394531 261.605469 150.089844 C 261.867188 150.785156 262.054688 151.496094 262.175781 152.230469 C 262.292969 152.960938 262.339844 153.699219 262.3125 154.4375 C 262.289062 155.179688 262.191406 155.914062 262.019531 156.632812 C 261.847656 157.355469 261.609375 158.054688 261.304688 158.730469 C 260.996094 159.402344 260.625 160.042969 260.191406 160.644531 C 259.757812 161.246094 259.269531 161.800781 258.726562 162.304688 Z M 253.945312 190.398438 C 253.949219 191.015625 253.921875 191.632812 253.863281 192.246094 C 253.804688 192.859375 253.714844 193.46875 253.597656 194.074219 C 253.476562 194.679688 253.328125 195.277344 253.152344 195.871094 C 252.972656 196.460938 252.769531 197.042969 252.535156 197.613281 C 252.300781 198.183594 252.039062 198.742188 251.75 199.285156 C 251.460938 199.832031 251.144531 200.359375 250.800781 200.875 C 250.460938 201.386719 250.09375 201.882812 249.703125 202.363281 C 249.316406 202.839844 248.902344 203.296875 248.46875 203.734375 C 248.03125 204.171875 247.578125 204.589844 247.101562 204.980469 C 246.625 205.375 246.128906 205.742188 245.617188 206.085938 C 245.105469 206.429688 244.578125 206.75 244.035156 207.039062 C 243.492188 207.332031 242.933594 207.597656 242.367188 207.835938 C 241.796875 208.070312 241.214844 208.28125 240.625 208.460938 C 240.035156 208.640625 239.4375 208.792969 238.832031 208.914062 C 238.230469 209.035156 237.621094 209.128906 237.003906 209.191406 C 236.390625 209.25 235.777344 209.285156 235.160156 209.285156 C 234.542969 209.285156 233.925781 209.257812 233.3125 209.199219 C 232.699219 209.136719 232.089844 209.050781 231.484375 208.929688 C 230.878906 208.8125 230.277344 208.664062 229.6875 208.484375 C 229.097656 208.304688 228.515625 208.101562 227.945312 207.863281 C 227.375 207.628906 226.820312 207.367188 226.273438 207.078125 C 225.730469 206.789062 225.199219 206.472656 224.6875 206.128906 C 224.171875 205.789062 223.675781 205.421875 223.199219 205.03125 C 222.722656 204.640625 222.265625 204.226562 221.828125 203.792969 C 221.390625 203.355469 220.976562 202.898438 220.582031 202.421875 C 220.191406 201.945312 219.824219 201.453125 219.480469 200.941406 C 219.136719 200.425781 218.820312 199.898438 218.527344 199.355469 C 218.234375 198.8125 217.972656 198.253906 217.734375 197.683594 C 217.5 197.117188 217.289062 196.535156 217.109375 195.945312 C 216.929688 195.355469 216.78125 194.757812 216.660156 194.152344 C 216.539062 193.546875 216.445312 192.9375 216.386719 192.324219 C 216.324219 191.710938 216.292969 191.09375 216.292969 190.476562 C 216.292969 189.859375 216.320312 189.246094 216.382812 188.628906 C 216.441406 188.015625 216.53125 187.40625 216.652344 186.800781 C 216.769531 186.195312 216.917969 185.597656 217.097656 185.007812 C 217.277344 184.417969 217.484375 183.835938 217.71875 183.265625 C 217.957031 182.695312 218.21875 182.140625 218.507812 181.59375 C 218.800781 181.050781 219.117188 180.519531 219.457031 180.007812 C 219.800781 179.496094 220.167969 179 220.558594 178.523438 C 220.949219 178.046875 221.363281 177.589844 221.800781 177.152344 C 222.234375 176.714844 222.691406 176.300781 223.167969 175.910156 C 223.644531 175.519531 224.140625 175.152344 224.652344 174.808594 C 225.167969 174.464844 225.695312 174.148438 226.238281 173.855469 C 226.78125 173.566406 227.339844 173.300781 227.910156 173.066406 C 228.480469 172.828125 229.058594 172.621094 229.652344 172.441406 C 230.242188 172.261719 230.839844 172.113281 231.445312 171.992188 C 232.050781 171.871094 232.660156 171.78125 233.273438 171.722656 C 233.886719 171.660156 234.503906 171.628906 235.121094 171.628906 C 235.742188 171.621094 236.363281 171.644531 236.984375 171.699219 C 237.605469 171.753906 238.222656 171.839844 238.832031 171.953125 C 239.445312 172.066406 240.050781 172.214844 240.648438 172.386719 C 241.246094 172.5625 241.832031 172.765625 242.410156 173 C 242.988281 173.234375 243.550781 173.496094 244.105469 173.785156 C 244.65625 174.074219 245.191406 174.390625 245.710938 174.734375 C 246.230469 175.074219 246.734375 175.441406 247.21875 175.835938 C 247.699219 176.226562 248.164062 176.644531 248.605469 177.082031 C 249.046875 177.519531 249.46875 177.980469 249.863281 178.457031 C 250.261719 178.9375 250.632812 179.4375 250.980469 179.953125 C 251.328125 180.472656 251.648438 181.003906 251.945312 181.554688 C 252.238281 182.101562 252.503906 182.664062 252.746094 183.238281 C 252.984375 183.8125 253.191406 184.398438 253.375 184.996094 C 253.554688 185.589844 253.703125 186.195312 253.824219 186.804688 C 253.945312 187.417969 254.035156 188.03125 254.097656 188.652344 C 254.15625 189.273438 254.183594 189.894531 254.183594 190.515625 Z M 241.847656 89.769531 C 242.441406 88.886719 243.175781 88.144531 244.050781 87.542969 C 244.929688 86.941406 245.886719 86.523438 246.921875 86.289062 C 247.941406 86.09375 248.960938 86.089844 249.980469 86.285156 C 251 86.480469 251.949219 86.855469 252.824219 87.410156 C 253.269531 87.699219 253.679688 88.03125 254.054688 88.398438 C 254.433594 88.769531 254.773438 89.175781 255.070312 89.609375 C 255.367188 90.046875 255.621094 90.507812 255.828125 90.996094 C 256.039062 91.480469 256.195312 91.984375 256.304688 92.5 C 256.414062 93.019531 256.472656 93.542969 256.480469 94.070312 C 256.488281 94.597656 256.441406 95.125 256.347656 95.644531 C 256.25 96.164062 256.105469 96.667969 255.910156 97.160156 C 255.714844 97.652344 255.472656 98.121094 255.1875 98.566406 C 254.601562 99.457031 253.871094 100.203125 252.992188 100.808594 C 252.113281 101.410156 251.152344 101.824219 250.109375 102.046875 C 249.089844 102.246094 248.070312 102.25 247.050781 102.054688 C 246.03125 101.859375 245.082031 101.484375 244.207031 100.925781 C 243.324219 100.332031 242.582031 99.597656 241.980469 98.722656 C 241.378906 97.84375 240.960938 96.886719 240.726562 95.851562 C 240.507812 94.800781 240.492188 93.753906 240.6875 92.699219 C 240.882812 91.648438 241.269531 90.671875 241.847656 89.769531 Z M 225.972656 110.25 C 226.707031 109.113281 227.628906 108.160156 228.746094 107.394531 C 229.859375 106.625 231.082031 106.105469 232.40625 105.824219 C 233.074219 105.648438 233.753906 105.539062 234.441406 105.5 C 235.132812 105.460938 235.820312 105.492188 236.503906 105.59375 C 237.1875 105.691406 237.855469 105.863281 238.503906 106.097656 C 239.15625 106.332031 239.773438 106.632812 240.363281 106.996094 C 240.953125 107.355469 241.5 107.773438 242.003906 108.246094 C 242.507812 108.71875 242.960938 109.238281 243.359375 109.804688 C 243.757812 110.371094 244.097656 110.96875 244.375 111.601562 C 244.652344 112.234375 244.859375 112.890625 245.003906 113.566406 C 245.148438 114.242188 245.222656 114.925781 245.230469 115.617188 C 245.234375 116.308594 245.167969 116.996094 245.035156 117.671875 C 244.902344 118.351562 244.699219 119.007812 244.433594 119.648438 C 244.164062 120.285156 243.835938 120.890625 243.445312 121.460938 C 243.054688 122.03125 242.613281 122.554688 242.113281 123.035156 C 241.617188 123.515625 241.078125 123.941406 240.492188 124.3125 C 239.910156 124.683594 239.292969 124.992188 238.648438 125.238281 C 238 125.484375 237.335938 125.660156 236.652344 125.773438 C 235.945312 125.859375 235.238281 125.859375 234.527344 125.773438 C 232.511719 125.789062 230.660156 125.238281 228.980469 124.121094 C 228.4375 123.757812 227.929688 123.34375 227.464844 122.882812 C 227 122.417969 226.582031 121.917969 226.210938 121.375 C 225.84375 120.835938 225.527344 120.261719 225.269531 119.660156 C 225.011719 119.054688 224.8125 118.433594 224.671875 117.792969 C 224.535156 117.152344 224.457031 116.503906 224.441406 115.847656 C 224.429688 115.191406 224.476562 114.542969 224.589844 113.894531 C 224.699219 113.25 224.871094 112.621094 225.105469 112.007812 C 225.335938 111.394531 225.625 110.808594 225.972656 110.25 Z M 230.515625 155.929688 C 230.519531 156.550781 230.488281 157.164062 230.429688 157.78125 C 230.371094 158.394531 230.285156 159.003906 230.164062 159.609375 C 230.046875 160.214844 229.898438 160.816406 229.71875 161.40625 C 229.542969 161.996094 229.335938 162.578125 229.101562 163.148438 C 228.867188 163.722656 228.605469 164.277344 228.316406 164.824219 C 228.023438 165.371094 227.710938 165.898438 227.367188 166.414062 C 227.027344 166.925781 226.660156 167.421875 226.269531 167.902344 C 225.878906 168.378906 225.464844 168.839844 225.03125 169.273438 C 224.59375 169.714844 224.136719 170.128906 223.660156 170.519531 C 223.183594 170.914062 222.691406 171.28125 222.175781 171.625 C 221.664062 171.96875 221.136719 172.289062 220.59375 172.578125 C 220.046875 172.871094 219.492188 173.136719 218.921875 173.375 C 218.351562 173.609375 217.769531 173.820312 217.179688 174 C 216.589844 174.179688 215.992188 174.328125 215.386719 174.449219 C 214.78125 174.570312 214.171875 174.664062 213.554688 174.726562 C 212.941406 174.785156 212.324219 174.816406 211.707031 174.816406 C 211.089844 174.816406 210.476562 174.789062 209.859375 174.730469 C 209.246094 174.667969 208.636719 174.578125 208.03125 174.457031 C 207.425781 174.339844 206.828125 174.1875 206.234375 174.011719 C 205.644531 173.832031 205.0625 173.625 204.492188 173.386719 C 203.921875 173.152344 203.363281 172.890625 202.820312 172.597656 C 202.277344 172.308594 201.746094 171.988281 201.234375 171.648438 C 200.71875 171.304688 200.222656 170.9375 199.746094 170.546875 C 199.269531 170.152344 198.8125 169.738281 198.375 169.304688 C 197.941406 168.867188 197.527344 168.410156 197.132812 167.933594 C 196.742188 167.453125 196.375 166.960938 196.03125 166.445312 C 195.6875 165.933594 195.371094 165.402344 195.082031 164.859375 C 194.789062 164.3125 194.527344 163.757812 194.292969 163.1875 C 194.054688 162.617188 193.847656 162.035156 193.667969 161.445312 C 193.488281 160.851562 193.339844 160.253906 193.222656 159.648438 C 193.101562 159.042969 193.011719 158.433594 192.949219 157.820312 C 192.890625 157.203125 192.859375 156.589844 192.863281 155.972656 C 192.863281 155.351562 192.894531 154.738281 192.953125 154.121094 C 193.015625 153.507812 193.105469 152.898438 193.226562 152.292969 C 193.351562 151.6875 193.5 151.089844 193.679688 150.5 C 193.859375 149.910156 194.070312 149.328125 194.304688 148.757812 C 194.542969 148.1875 194.808594 147.632812 195.101562 147.085938 C 195.390625 146.542969 195.710938 146.015625 196.054688 145.503906 C 196.398438 144.988281 196.765625 144.496094 197.160156 144.019531 C 197.550781 143.542969 197.964844 143.085938 198.402344 142.648438 C 198.839844 142.214844 199.300781 141.800781 199.777344 141.410156 C 200.253906 141.019531 200.75 140.652344 201.265625 140.3125 C 201.78125 139.96875 202.308594 139.652344 202.855469 139.363281 C 203.398438 139.074219 203.957031 138.8125 204.53125 138.578125 C 205.101562 138.34375 205.683594 138.136719 206.273438 137.960938 C 206.863281 137.78125 207.464844 137.632812 208.070312 137.515625 C 208.675781 137.394531 209.285156 137.308594 209.898438 137.25 C 210.515625 137.191406 211.128906 137.160156 211.746094 137.164062 C 212.363281 137.164062 212.972656 137.195312 213.585938 137.257812 C 214.195312 137.320312 214.804688 137.414062 215.40625 137.535156 C 216.007812 137.65625 216.601562 137.804688 217.1875 137.984375 C 217.777344 138.164062 218.355469 138.371094 218.921875 138.609375 C 219.488281 138.84375 220.042969 139.105469 220.582031 139.398438 C 221.125 139.6875 221.652344 140.003906 222.160156 140.34375 C 222.671875 140.6875 223.164062 141.050781 223.636719 141.441406 C 224.113281 141.832031 224.566406 142.242188 225 142.675781 C 225.4375 143.113281 225.847656 143.566406 226.238281 144.039062 C 226.628906 144.515625 226.992188 145.007812 227.335938 145.519531 C 227.675781 146.027344 227.992188 146.554688 228.28125 147.097656 C 228.574219 147.636719 228.835938 148.191406 229.070312 148.757812 C 229.308594 149.324219 229.515625 149.902344 229.695312 150.488281 C 229.875 151.078125 230.023438 151.671875 230.144531 152.273438 C 230.265625 152.875 230.359375 153.484375 230.421875 154.09375 C 230.480469 154.703125 230.515625 155.316406 230.515625 155.929688 Z M 190.207031 81.390625 C 190.875 81.390625 191.539062 81.457031 192.199219 81.585938 C 192.855469 81.71875 193.492188 81.910156 194.113281 82.167969 C 194.734375 82.425781 195.320312 82.738281 195.878906 83.109375 C 196.4375 83.484375 196.953125 83.90625 197.425781 84.378906 C 197.898438 84.855469 198.324219 85.371094 198.695312 85.929688 C 199.066406 86.484375 199.382812 87.074219 199.640625 87.691406 C 199.894531 88.3125 200.089844 88.949219 200.21875 89.609375 C 200.351562 90.265625 200.417969 90.929688 200.417969 91.601562 C 200.417969 92.269531 200.351562 92.933594 200.21875 93.59375 C 200.089844 94.25 199.894531 94.886719 199.640625 95.507812 C 199.382812 96.128906 199.066406 96.714844 198.695312 97.273438 C 198.324219 97.832031 197.898438 98.347656 197.425781 98.820312 C 196.953125 99.292969 196.4375 99.71875 195.878906 100.089844 C 195.320312 100.460938 194.734375 100.777344 194.113281 101.035156 C 193.492188 101.289062 192.855469 101.484375 192.199219 101.613281 C 191.539062 101.746094 190.875 101.8125 190.207031 101.8125 C 189.535156 101.8125 188.871094 101.746094 188.214844 101.613281 C 187.554688 101.484375 186.917969 101.289062 186.296875 101.035156 C 185.679688 100.777344 185.089844 100.460938 184.535156 100.089844 C 183.976562 99.71875 183.460938 99.292969 182.984375 98.820312 C 182.511719 98.347656 182.089844 97.832031 181.714844 97.273438 C 181.34375 96.714844 181.027344 96.128906 180.773438 95.507812 C 180.515625 94.886719 180.324219 94.25 180.191406 93.59375 C 180.0625 92.933594 179.996094 92.269531 179.996094 91.601562 C 179.996094 90.929688 180.0625 90.265625 180.191406 89.609375 C 180.324219 88.949219 180.515625 88.3125 180.773438 87.691406 C 181.027344 87.074219 181.34375 86.484375 181.714844 85.929688 C 182.089844 85.371094 182.511719 84.855469 182.984375 84.378906 C 183.460938 83.90625 183.976562 83.484375 184.535156 83.109375 C 185.089844 82.738281 185.679688 82.425781 186.296875 82.167969 C 186.917969 81.910156 187.554688 81.71875 188.214844 81.585938 C 188.871094 81.457031 189.535156 81.390625 190.207031 81.390625 Z M 190.207031 110.425781 C 190.945312 110.425781 191.679688 110.5 192.40625 110.644531 C 193.132812 110.789062 193.835938 111.003906 194.519531 111.285156 C 195.203125 111.570312 195.851562 111.917969 196.46875 112.328125 C 197.085938 112.738281 197.652344 113.207031 198.175781 113.730469 C 198.699219 114.253906 199.167969 114.820312 199.578125 115.4375 C 199.988281 116.054688 200.335938 116.703125 200.621094 117.386719 C 200.902344 118.070312 201.117188 118.773438 201.261719 119.5 C 201.40625 120.226562 201.476562 120.960938 201.476562 121.699219 C 201.476562 122.441406 201.40625 123.171875 201.261719 123.898438 C 201.117188 124.625 200.902344 125.332031 200.621094 126.015625 C 200.335938 126.699219 199.988281 127.347656 199.578125 127.964844 C 199.167969 128.578125 198.699219 129.148438 198.175781 129.671875 C 197.652344 130.195312 197.085938 130.660156 196.46875 131.074219 C 195.851562 131.484375 195.203125 131.832031 194.519531 132.113281 C 193.835938 132.398438 193.132812 132.613281 192.40625 132.757812 C 191.679688 132.902344 190.945312 132.972656 190.207031 132.972656 C 189.464844 132.972656 188.734375 132.902344 188.007812 132.757812 C 187.28125 132.613281 186.574219 132.398438 185.890625 132.113281 C 185.207031 131.832031 184.558594 131.484375 183.941406 131.074219 C 183.328125 130.660156 182.757812 130.195312 182.234375 129.671875 C 181.710938 129.148438 181.246094 128.578125 180.832031 127.964844 C 180.421875 127.347656 180.074219 126.699219 179.792969 126.015625 C 179.507812 125.332031 179.292969 124.625 179.148438 123.898438 C 179.003906 123.171875 178.933594 122.441406 178.933594 121.699219 C 178.9375 120.960938 179.011719 120.230469 179.160156 119.503906 C 179.304688 118.78125 179.523438 118.078125 179.808594 117.394531 C 180.089844 116.714844 180.441406 116.066406 180.851562 115.453125 C 181.261719 114.835938 181.730469 114.269531 182.253906 113.746094 C 182.773438 113.222656 183.34375 112.757812 183.957031 112.34375 C 184.570312 111.933594 185.21875 111.585938 185.902344 111.300781 C 186.582031 111.015625 187.285156 110.800781 188.011719 110.652344 C 188.734375 110.507812 189.464844 110.429688 190.207031 110.425781 Z M 168.664062 137.339844 C 169.28125 137.339844 169.898438 137.367188 170.515625 137.425781 C 171.132812 137.484375 171.742188 137.574219 172.351562 137.691406 C 172.957031 137.8125 173.558594 137.960938 174.148438 138.140625 C 174.742188 138.316406 175.324219 138.523438 175.894531 138.761719 C 176.46875 138.996094 177.027344 139.261719 177.574219 139.550781 C 178.117188 139.839844 178.648438 140.160156 179.164062 140.5 C 179.679688 140.84375 180.175781 141.210938 180.652344 141.605469 C 181.132812 141.996094 181.589844 142.410156 182.027344 142.847656 C 182.464844 143.285156 182.878906 143.742188 183.273438 144.222656 C 183.664062 144.699219 184.035156 145.195312 184.378906 145.710938 C 184.722656 146.226562 185.039062 146.753906 185.328125 147.300781 C 185.621094 147.847656 185.886719 148.40625 186.121094 148.976562 C 186.359375 149.550781 186.566406 150.132812 186.746094 150.722656 C 186.921875 151.316406 187.074219 151.914062 187.191406 152.523438 C 187.3125 153.128906 187.402344 153.742188 187.460938 154.355469 C 187.519531 154.972656 187.550781 155.589844 187.546875 156.207031 C 187.546875 156.828125 187.515625 157.445312 187.453125 158.058594 C 187.390625 158.675781 187.300781 159.285156 187.175781 159.890625 C 187.054688 160.5 186.902344 161.097656 186.722656 161.6875 C 186.539062 162.28125 186.328125 162.863281 186.089844 163.433594 C 185.851562 164.003906 185.585938 164.558594 185.292969 165.105469 C 185 165.648438 184.679688 166.179688 184.332031 166.691406 C 183.988281 167.203125 183.617188 167.699219 183.222656 168.175781 C 182.828125 168.652344 182.410156 169.109375 181.972656 169.542969 C 181.53125 169.980469 181.070312 170.390625 180.589844 170.78125 C 180.109375 171.171875 179.613281 171.535156 179.097656 171.878906 C 178.582031 172.21875 178.046875 172.535156 177.5 172.820312 C 176.953125 173.109375 176.394531 173.371094 175.820312 173.605469 C 175.25 173.839844 174.664062 174.042969 174.070312 174.21875 C 173.480469 174.394531 172.878906 174.539062 172.269531 174.65625 C 171.664062 174.773438 171.050781 174.859375 170.433594 174.917969 C 169.820312 174.972656 169.203125 175 168.582031 174.992188 C 167.964844 174.988281 167.347656 174.953125 166.734375 174.890625 C 166.117188 174.824219 165.507812 174.726562 164.902344 174.601562 C 164.296875 174.476562 163.695312 174.324219 163.105469 174.136719 C 162.515625 173.953125 161.9375 173.742188 161.367188 173.5 C 160.796875 173.257812 160.242188 172.988281 159.699219 172.691406 C 159.15625 172.394531 158.628906 172.074219 158.117188 171.722656 C 157.605469 171.375 157.113281 171.003906 156.636719 170.605469 C 156.164062 170.207031 155.710938 169.789062 155.277344 169.347656 C 154.84375 168.90625 154.433594 168.445312 154.046875 167.960938 C 153.660156 167.480469 153.296875 166.980469 152.957031 166.460938 C 152.617188 165.941406 152.308594 165.410156 152.023438 164.859375 C 151.734375 164.3125 151.476562 163.75 151.246094 163.175781 C 151.015625 162.601562 150.816406 162.019531 150.644531 161.425781 C 150.46875 160.828125 150.328125 160.230469 150.214844 159.621094 C 150.101562 159.011719 150.015625 158.398438 149.964844 157.785156 C 149.910156 157.167969 149.886719 156.550781 149.894531 155.929688 C 149.902344 155.320312 149.941406 154.710938 150.007812 154.105469 C 150.074219 153.5 150.171875 152.898438 150.296875 152.300781 C 150.421875 151.703125 150.574219 151.113281 150.757812 150.53125 C 150.941406 149.945312 151.152344 149.375 151.390625 148.8125 C 151.628906 148.25 151.894531 147.703125 152.1875 147.164062 C 152.476562 146.628906 152.796875 146.109375 153.136719 145.601562 C 153.480469 145.097656 153.847656 144.609375 154.234375 144.140625 C 154.625 143.671875 155.039062 143.222656 155.472656 142.792969 C 155.90625 142.363281 156.359375 141.953125 156.832031 141.570312 C 157.304688 141.183594 157.796875 140.820312 158.304688 140.484375 C 158.8125 140.144531 159.335938 139.835938 159.875 139.546875 C 160.414062 139.261719 160.96875 139 161.53125 138.765625 C 162.09375 138.535156 162.667969 138.328125 163.253906 138.152344 C 163.839844 137.972656 164.429688 137.824219 165.027344 137.707031 C 165.625 137.585938 166.230469 137.496094 166.835938 137.433594 C 167.445312 137.375 168.054688 137.34375 168.664062 137.339844 Z M 166.007812 190.457031 C 166.011719 191.074219 165.980469 191.691406 165.921875 192.304688 C 165.863281 192.917969 165.777344 193.527344 165.65625 194.132812 C 165.539062 194.738281 165.390625 195.339844 165.214844 195.929688 C 165.035156 196.519531 164.828125 197.101562 164.59375 197.671875 C 164.359375 198.242188 164.097656 198.800781 163.808594 199.34375 C 163.519531 199.890625 163.207031 200.417969 162.863281 200.933594 C 162.523438 201.449219 162.15625 201.945312 161.765625 202.421875 C 161.375 202.898438 160.964844 203.355469 160.527344 203.792969 C 160.09375 204.230469 159.636719 204.648438 159.160156 205.039062 C 158.6875 205.433594 158.191406 205.800781 157.679688 206.144531 C 157.167969 206.488281 156.640625 206.808594 156.097656 207.097656 C 155.550781 207.390625 154.996094 207.65625 154.425781 207.894531 C 153.855469 208.132812 153.277344 208.339844 152.6875 208.519531 C 152.097656 208.699219 151.5 208.851562 150.894531 208.972656 C 150.289062 209.09375 149.679688 209.1875 149.066406 209.25 C 148.453125 209.3125 147.835938 209.34375 147.21875 209.34375 C 146.601562 209.34375 145.988281 209.316406 145.375 209.257812 C 144.757812 209.199219 144.148438 209.109375 143.542969 208.988281 C 142.9375 208.871094 142.339844 208.722656 141.75 208.542969 C 141.160156 208.367188 140.578125 208.160156 140.007812 207.925781 C 139.4375 207.6875 138.878906 207.425781 138.335938 207.136719 C 137.789062 206.847656 137.261719 206.53125 136.746094 206.1875 C 136.234375 205.847656 135.738281 205.480469 135.261719 205.089844 C 134.785156 204.699219 134.324219 204.285156 133.890625 203.851562 C 133.453125 203.414062 133.039062 202.957031 132.644531 202.484375 C 132.253906 202.007812 131.886719 201.511719 131.542969 201 C 131.199219 200.488281 130.878906 199.957031 130.589844 199.414062 C 130.296875 198.871094 130.035156 198.3125 129.796875 197.746094 C 129.558594 197.175781 129.351562 196.59375 129.171875 196.003906 C 128.992188 195.414062 128.839844 194.816406 128.71875 194.210938 C 128.597656 193.605469 128.507812 192.996094 128.445312 192.382812 C 128.386719 191.769531 128.355469 191.152344 128.355469 190.535156 C 128.351562 189.917969 128.382812 189.304688 128.441406 188.691406 C 128.503906 188.074219 128.59375 187.464844 128.710938 186.859375 C 128.832031 186.253906 128.980469 185.65625 129.160156 185.066406 C 129.339844 184.476562 129.546875 183.894531 129.78125 183.324219 C 130.015625 182.753906 130.28125 182.199219 130.570312 181.652344 C 130.859375 181.109375 131.175781 180.582031 131.519531 180.066406 C 131.863281 179.554688 132.230469 179.058594 132.621094 178.582031 C 133.011719 178.105469 133.425781 177.648438 133.859375 177.210938 C 134.296875 176.773438 134.753906 176.359375 135.230469 175.96875 C 135.707031 175.578125 136.203125 175.210938 136.714844 174.867188 C 137.226562 174.523438 137.757812 174.207031 138.300781 173.914062 C 138.84375 173.625 139.402344 173.359375 139.972656 173.125 C 140.542969 172.886719 141.121094 172.679688 141.710938 172.5 C 142.300781 172.320312 142.898438 172.171875 143.503906 172.050781 C 144.109375 171.929688 144.71875 171.839844 145.335938 171.78125 C 145.949219 171.71875 146.5625 171.691406 147.179688 171.691406 C 147.796875 171.691406 148.414062 171.71875 149.027344 171.78125 C 149.640625 171.839844 150.25 171.929688 150.855469 172.050781 C 151.457031 172.171875 152.054688 172.320312 152.644531 172.5 C 153.234375 172.679688 153.816406 172.886719 154.386719 173.121094 C 154.957031 173.359375 155.511719 173.621094 156.054688 173.914062 C 156.601562 174.203125 157.128906 174.519531 157.640625 174.863281 C 158.152344 175.207031 158.648438 175.570312 159.125 175.964844 C 159.601562 176.355469 160.058594 176.769531 160.492188 177.203125 C 160.929688 177.640625 161.34375 178.097656 161.734375 178.574219 C 162.125 179.050781 162.492188 179.542969 162.835938 180.058594 C 163.175781 180.570312 163.496094 181.097656 163.785156 181.640625 C 164.074219 182.183594 164.339844 182.742188 164.574219 183.3125 C 164.8125 183.882812 165.019531 184.460938 165.199219 185.050781 C 165.375 185.640625 165.527344 186.238281 165.644531 186.84375 C 165.765625 187.449219 165.855469 188.058594 165.917969 188.671875 C 165.976562 189.285156 166.007812 189.898438 166.007812 190.515625 Z M 151.726562 110.191406 C 152.089844 110.753906 152.398438 111.34375 152.644531 111.964844 C 152.894531 112.582031 153.082031 113.222656 153.203125 113.878906 C 153.328125 114.539062 153.386719 115.199219 153.378906 115.867188 C 153.371094 116.539062 153.300781 117.199219 153.164062 117.855469 C 153.027344 118.507812 152.828125 119.144531 152.566406 119.757812 C 152.304688 120.375 151.984375 120.957031 151.609375 121.511719 C 151.230469 122.0625 150.804688 122.574219 150.328125 123.042969 C 149.851562 123.511719 149.332031 123.929688 148.773438 124.296875 C 147.09375 125.410156 145.242188 125.960938 143.226562 125.949219 C 142.519531 126.039062 141.808594 126.039062 141.101562 125.949219 C 139.78125 125.679688 138.5625 125.167969 137.449219 124.410156 C 136.332031 123.652344 135.40625 122.710938 134.667969 121.582031 C 133.917969 120.445312 133.410156 119.203125 133.15625 117.863281 C 132.898438 116.523438 132.914062 115.1875 133.191406 113.851562 C 133.484375 112.53125 134.011719 111.316406 134.777344 110.203125 C 135.542969 109.089844 136.492188 108.160156 137.621094 107.417969 C 138.175781 107.050781 138.765625 106.738281 139.382812 106.488281 C 140 106.234375 140.636719 106.042969 141.289062 105.917969 C 141.945312 105.789062 142.605469 105.726562 143.273438 105.726562 C 143.941406 105.730469 144.601562 105.796875 145.257812 105.929688 C 145.910156 106.058594 146.546875 106.253906 147.160156 106.507812 C 147.777344 106.765625 148.363281 107.078125 148.917969 107.449219 C 149.472656 107.820312 149.988281 108.242188 150.460938 108.710938 C 150.929688 109.183594 151.355469 109.695312 151.726562 110.25 Z M 124.695312 87.410156 C 125.5625 86.832031 126.507812 86.449219 127.53125 86.253906 C 128.554688 86.058594 129.578125 86.070312 130.597656 86.289062 C 131.640625 86.507812 132.601562 86.921875 133.480469 87.523438 C 134.359375 88.128906 135.089844 88.875 135.671875 89.769531 C 136.238281 90.644531 136.621094 91.589844 136.816406 92.609375 C 137.007812 93.632812 137.003906 94.652344 136.792969 95.671875 C 136.628906 96.449219 136.355469 97.183594 135.972656 97.878906 C 135.589844 98.574219 135.113281 99.199219 134.546875 99.753906 C 133.976562 100.308594 133.34375 100.765625 132.636719 101.132812 C 131.933594 101.496094 131.191406 101.753906 130.410156 101.898438 C 129.632812 102.042969 128.847656 102.074219 128.058594 101.984375 C 127.269531 101.898438 126.511719 101.699219 125.78125 101.386719 C 125.050781 101.074219 124.382812 100.660156 123.777344 100.152344 C 123.167969 99.640625 122.648438 99.050781 122.214844 98.386719 C 121.949219 97.941406 121.726562 97.476562 121.546875 96.988281 C 121.371094 96.5 121.238281 96 121.15625 95.488281 C 121.074219 94.976562 121.042969 94.460938 121.058594 93.941406 C 121.074219 93.421875 121.140625 92.910156 121.253906 92.402344 C 121.367188 91.894531 121.53125 91.40625 121.738281 90.929688 C 121.945312 90.453125 122.199219 90 122.492188 89.574219 C 122.789062 89.148438 123.121094 88.75 123.488281 88.386719 C 123.859375 88.023438 124.261719 87.699219 124.695312 87.410156 Z M 120.742188 150.679688 C 121.058594 150.335938 121.394531 150.015625 121.753906 149.714844 C 122.109375 149.417969 122.484375 149.140625 122.875 148.886719 C 123.269531 148.632812 123.675781 148.40625 124.09375 148.203125 C 124.515625 148 124.945312 147.820312 125.386719 147.671875 C 125.828125 147.523438 126.28125 147.402344 126.738281 147.308594 C 127.195312 147.214844 127.65625 147.148438 128.121094 147.113281 C 128.585938 147.078125 129.050781 147.070312 129.515625 147.089844 C 129.984375 147.113281 130.445312 147.164062 130.90625 147.242188 C 131.367188 147.320312 131.820312 147.425781 132.265625 147.5625 C 132.710938 147.699219 133.148438 147.859375 133.574219 148.050781 C 134 148.238281 134.414062 148.453125 134.8125 148.695312 C 135.214844 148.933594 135.597656 149.199219 135.964844 149.488281 C 136.332031 149.777344 136.679688 150.085938 137.007812 150.417969 C 137.335938 150.75 137.640625 151.101562 137.925781 151.46875 C 138.210938 151.839844 138.472656 152.226562 138.710938 152.625 C 138.945312 153.027344 139.15625 153.445312 139.34375 153.871094 C 139.527344 154.300781 139.6875 154.738281 139.816406 155.1875 C 139.949219 155.632812 140.050781 156.089844 140.125 156.546875 C 140.199219 157.007812 140.246094 157.472656 140.265625 157.9375 C 140.28125 158.40625 140.269531 158.871094 140.226562 159.335938 C 140.1875 159.800781 140.117188 160.261719 140.019531 160.71875 C 139.921875 161.171875 139.796875 161.621094 139.644531 162.0625 C 139.488281 162.503906 139.308594 162.933594 139.101562 163.351562 C 138.894531 163.769531 138.664062 164.171875 138.40625 164.5625 C 138.148438 164.953125 137.867188 165.324219 137.566406 165.679688 C 137.261719 166.03125 136.9375 166.367188 136.59375 166.679688 C 136.25 166.996094 135.886719 167.289062 135.503906 167.558594 C 135.125 167.828125 134.726562 168.070312 134.316406 168.292969 C 133.90625 168.511719 133.480469 168.707031 133.046875 168.871094 C 132.609375 169.039062 132.164062 169.179688 131.714844 169.292969 C 131.261719 169.40625 130.800781 169.488281 130.339844 169.542969 C 129.875 169.601562 129.410156 169.625 128.945312 169.625 C 127.84375 169.632812 126.765625 169.480469 125.707031 169.171875 C 124.652344 168.863281 123.664062 168.40625 122.742188 167.804688 C 121.820312 167.207031 121.003906 166.484375 120.292969 165.644531 C 119.582031 164.800781 119.007812 163.875 118.570312 162.867188 C 118.132812 161.855469 117.851562 160.804688 117.722656 159.710938 C 117.597656 158.617188 117.628906 157.53125 117.820312 156.445312 C 118.015625 155.363281 118.359375 154.328125 118.855469 153.347656 C 119.351562 152.367188 119.980469 151.476562 120.742188 150.679688 Z M 117.964844 225.574219 C 117.992188 224.828125 118.09375 224.09375 118.265625 223.367188 C 118.4375 222.640625 118.679688 221.941406 118.992188 221.261719 C 119.304688 220.585938 119.679688 219.945312 120.117188 219.339844 C 120.558594 218.738281 121.050781 218.183594 121.601562 217.679688 C 122.148438 217.171875 122.742188 216.726562 123.378906 216.339844 C 124.015625 215.953125 124.6875 215.632812 125.386719 215.378906 C 126.089844 215.125 126.808594 214.941406 127.546875 214.828125 C 128.285156 214.71875 129.023438 214.679688 129.769531 214.714844 C 130.511719 214.726562 131.242188 214.8125 131.964844 214.972656 C 132.6875 215.128906 133.390625 215.355469 134.066406 215.652344 C 134.746094 215.949219 135.390625 216.304688 136 216.730469 C 136.605469 217.152344 137.167969 217.628906 137.679688 218.164062 C 138.195312 218.695312 138.652344 219.273438 139.050781 219.894531 C 139.449219 220.519531 139.785156 221.175781 140.058594 221.863281 C 140.328125 222.554688 140.527344 223.261719 140.660156 223.992188 C 140.792969 224.71875 140.851562 225.453125 140.835938 226.195312 C 140.824219 226.933594 140.738281 227.664062 140.578125 228.390625 C 140.421875 229.113281 140.195312 229.8125 139.898438 230.492188 C 139.601562 231.171875 139.246094 231.8125 138.820312 232.421875 C 138.398438 233.03125 137.921875 233.589844 137.386719 234.105469 C 136.855469 234.617188 136.277344 235.074219 135.65625 235.476562 C 135.03125 235.875 134.375 236.210938 133.6875 236.480469 C 132.996094 236.75 132.289062 236.953125 131.558594 237.082031 C 130.832031 237.214844 130.097656 237.273438 129.355469 237.261719 L 129.003906 237.261719 C 128.253906 237.238281 127.515625 237.140625 126.789062 236.972656 C 126.058594 236.800781 125.355469 236.5625 124.671875 236.25 C 123.992188 235.941406 123.347656 235.566406 122.742188 235.128906 C 122.132812 234.691406 121.578125 234.195312 121.070312 233.648438 C 120.5625 233.097656 120.113281 232.503906 119.722656 231.863281 C 119.332031 231.226562 119.007812 230.554688 118.753906 229.851562 C 118.496094 229.148438 118.3125 228.425781 118.199219 227.6875 C 118.085938 226.949219 118.046875 226.203125 118.085938 225.457031 Z M 135.671875 290.140625 C 135.308594 290.703125 134.878906 291.210938 134.390625 291.664062 C 133.898438 292.117188 133.359375 292.503906 132.773438 292.824219 C 132.183594 293.144531 131.566406 293.386719 130.917969 293.550781 C 130.269531 293.71875 129.613281 293.800781 128.945312 293.800781 C 127.355469 293.808594 125.902344 293.375 124.578125 292.5 C 124.140625 292.207031 123.734375 291.875 123.363281 291.5 C 122.988281 291.125 122.65625 290.722656 122.363281 290.285156 C 122.070312 289.84375 121.820312 289.382812 121.617188 288.898438 C 121.414062 288.410156 121.257812 287.910156 121.152344 287.394531 C 121.046875 286.878906 120.988281 286.355469 120.984375 285.828125 C 120.980469 285.300781 121.023438 284.777344 121.121094 284.261719 C 121.21875 283.742188 121.363281 283.238281 121.554688 282.746094 C 121.75 282.257812 121.988281 281.789062 122.273438 281.347656 C 122.5625 280.90625 122.890625 280.496094 123.257812 280.121094 C 123.625 279.742188 124.023438 279.40625 124.457031 279.105469 C 124.894531 278.808594 125.351562 278.554688 125.835938 278.347656 C 126.320312 278.140625 126.820312 277.980469 127.335938 277.871094 C 127.847656 277.761719 128.371094 277.703125 128.898438 277.695312 C 129.421875 277.6875 129.945312 277.734375 130.464844 277.828125 C 130.980469 277.925781 131.484375 278.070312 131.972656 278.265625 C 132.464844 278.460938 132.929688 278.699219 133.371094 278.988281 C 133.816406 279.273438 134.234375 279.597656 134.617188 279.964844 C 135 280.332031 135.34375 280.730469 135.648438 281.167969 C 135.953125 281.601562 136.210938 282.0625 136.425781 282.546875 C 136.636719 283.03125 136.800781 283.53125 136.917969 284.050781 C 137.03125 284.570312 137.097656 285.09375 137.109375 285.621094 C 137.121094 286.152344 137.082031 286.679688 136.988281 287.203125 C 136.898438 287.726562 136.753906 288.234375 136.5625 288.726562 C 136.371094 289.222656 136.132812 289.695312 135.847656 290.140625 Z M 151.546875 269.660156 C 151.1875 270.226562 150.773438 270.75 150.304688 271.230469 C 149.839844 271.714844 149.332031 272.144531 148.78125 272.527344 C 148.230469 272.910156 147.644531 273.234375 147.03125 273.5 C 146.414062 273.765625 145.777344 273.96875 145.121094 274.105469 C 144.46875 274.246094 143.804688 274.320312 143.132812 274.328125 C 142.464844 274.339844 141.796875 274.28125 141.140625 274.15625 C 140.480469 274.035156 139.839844 273.847656 139.21875 273.597656 C 138.59375 273.347656 138.003906 273.039062 137.441406 272.671875 C 136.316406 271.929688 135.367188 271 134.601562 269.886719 C 133.835938 268.773438 133.308594 267.558594 133.015625 266.238281 C 132.734375 264.914062 132.71875 263.582031 132.976562 262.253906 C 133.234375 260.921875 133.738281 259.691406 134.492188 258.566406 C 135.042969 257.722656 135.703125 256.976562 136.472656 256.328125 C 137.246094 255.679688 138.09375 255.15625 139.019531 254.761719 C 139.945312 254.363281 140.910156 254.109375 141.910156 253.996094 C 142.910156 253.886719 143.90625 253.921875 144.898438 254.105469 C 145.890625 254.285156 146.832031 254.609375 147.726562 255.070312 C 148.621094 255.535156 149.429688 256.113281 150.152344 256.816406 C 150.878906 257.519531 151.484375 258.308594 151.972656 259.191406 C 152.460938 260.070312 152.8125 261.003906 153.023438 261.988281 C 153.332031 263.304688 153.375 264.625 153.148438 265.957031 C 152.921875 267.285156 152.449219 268.523438 151.726562 269.660156 Z M 149.71875 224.984375 C 149.714844 224.367188 149.746094 223.75 149.804688 223.136719 C 149.863281 222.519531 149.949219 221.910156 150.070312 221.304688 C 150.1875 220.699219 150.335938 220.101562 150.515625 219.507812 C 150.691406 218.917969 150.898438 218.335938 151.132812 217.765625 C 151.367188 217.195312 151.628906 216.636719 151.917969 216.089844 C 152.210938 215.546875 152.523438 215.015625 152.867188 214.503906 C 153.207031 213.988281 153.574219 213.492188 153.964844 213.011719 C 154.355469 212.535156 154.769531 212.078125 155.207031 211.640625 C 155.640625 211.203125 156.097656 210.789062 156.574219 210.394531 C 157.050781 210.003906 157.542969 209.632812 158.058594 209.289062 C 158.570312 208.945312 159.097656 208.628906 159.640625 208.335938 C 160.1875 208.042969 160.742188 207.78125 161.3125 207.542969 C 161.882812 207.304688 162.464844 207.097656 163.054688 206.917969 C 163.644531 206.738281 164.242188 206.585938 164.847656 206.464844 C 165.453125 206.34375 166.0625 206.253906 166.679688 206.191406 C 167.292969 206.128906 167.910156 206.097656 168.527344 206.097656 C 169.144531 206.097656 169.757812 206.125 170.375 206.1875 C 170.988281 206.246094 171.597656 206.335938 172.203125 206.457031 C 172.808594 206.578125 173.410156 206.726562 174 206.90625 C 174.589844 207.082031 175.171875 207.292969 175.742188 207.527344 C 176.3125 207.761719 176.871094 208.027344 177.414062 208.316406 C 177.957031 208.609375 178.488281 208.925781 179 209.269531 C 179.515625 209.609375 180.011719 209.976562 180.488281 210.371094 C 180.964844 210.761719 181.421875 211.175781 181.859375 211.613281 C 182.296875 212.050781 182.710938 212.503906 183.101562 212.984375 C 183.492188 213.460938 183.859375 213.957031 184.203125 214.46875 C 184.546875 214.984375 184.863281 215.511719 185.152344 216.054688 C 185.445312 216.601562 185.707031 217.160156 185.945312 217.730469 C 186.179688 218.300781 186.386719 218.878906 186.566406 219.472656 C 186.746094 220.0625 186.894531 220.660156 187.015625 221.265625 C 187.132812 221.871094 187.222656 222.480469 187.285156 223.097656 C 187.34375 223.710938 187.375 224.328125 187.371094 224.945312 C 187.371094 225.5625 187.339844 226.179688 187.28125 226.792969 C 187.21875 227.40625 187.128906 228.015625 187.007812 228.621094 C 186.886719 229.226562 186.734375 229.824219 186.554688 230.417969 C 186.375 231.007812 186.164062 231.585938 185.929688 232.15625 C 185.691406 232.726562 185.425781 233.285156 185.132812 233.828125 C 184.84375 234.371094 184.523438 234.902344 184.179688 235.414062 C 183.835938 235.925781 183.46875 236.421875 183.074219 236.898438 C 182.683594 237.375 182.269531 237.828125 181.832031 238.265625 C 181.394531 238.703125 180.933594 239.113281 180.457031 239.503906 C 179.980469 239.894531 179.484375 240.261719 178.96875 240.605469 C 178.453125 240.945312 177.925781 241.261719 177.378906 241.550781 C 176.835938 241.839844 176.277344 242.101562 175.707031 242.335938 C 175.132812 242.574219 174.554688 242.777344 173.960938 242.957031 C 173.371094 243.132812 172.773438 243.28125 172.164062 243.402344 C 171.558594 243.519531 170.949219 243.609375 170.335938 243.667969 C 169.71875 243.726562 169.105469 243.753906 168.488281 243.753906 C 167.875 243.746094 167.269531 243.707031 166.660156 243.640625 C 166.054688 243.574219 165.453125 243.476562 164.855469 243.351562 C 164.257812 243.226562 163.667969 243.070312 163.085938 242.890625 C 162.503906 242.707031 161.929688 242.496094 161.367188 242.257812 C 160.804688 242.019531 160.257812 241.753906 159.722656 241.460938 C 159.183594 241.171875 158.664062 240.851562 158.160156 240.511719 C 157.652344 240.167969 157.164062 239.800781 156.695312 239.410156 C 156.226562 239.023438 155.777344 238.609375 155.347656 238.175781 C 154.917969 237.742188 154.511719 237.289062 154.125 236.816406 C 153.738281 236.34375 153.378906 235.851562 153.039062 235.34375 C 152.703125 234.832031 152.390625 234.308594 152.101562 233.769531 C 151.816406 233.230469 151.554688 232.679688 151.324219 232.117188 C 151.089844 231.550781 150.882812 230.976562 150.707031 230.394531 C 150.53125 229.808594 150.382812 229.21875 150.261719 228.621094 C 150.140625 228.019531 150.050781 227.417969 149.988281 226.8125 C 149.929688 226.203125 149.898438 225.59375 149.894531 224.984375 Z M 190.207031 295.394531 C 189.535156 295.394531 188.871094 295.328125 188.214844 295.199219 C 187.554688 295.066406 186.917969 294.875 186.296875 294.617188 C 185.679688 294.359375 185.089844 294.046875 184.535156 293.671875 C 183.976562 293.300781 183.460938 292.878906 182.984375 292.402344 C 182.511719 291.929688 182.089844 291.414062 181.714844 290.855469 C 181.34375 290.296875 181.027344 289.710938 180.773438 289.089844 C 180.515625 288.472656 180.324219 287.832031 180.191406 287.175781 C 180.0625 286.519531 179.996094 285.855469 179.996094 285.183594 C 179.996094 284.511719 180.0625 283.847656 180.191406 283.191406 C 180.324219 282.535156 180.515625 281.894531 180.773438 281.277344 C 181.027344 280.65625 181.34375 280.066406 181.714844 279.511719 C 182.089844 278.953125 182.511719 278.4375 182.984375 277.964844 C 183.460938 277.488281 183.976562 277.066406 184.535156 276.695312 C 185.089844 276.320312 185.679688 276.007812 186.296875 275.75 C 186.917969 275.492188 187.554688 275.300781 188.214844 275.167969 C 188.871094 275.039062 189.535156 274.972656 190.207031 274.972656 C 190.875 274.972656 191.539062 275.039062 192.199219 275.167969 C 192.855469 275.300781 193.492188 275.492188 194.113281 275.75 C 194.734375 276.007812 195.320312 276.320312 195.878906 276.695312 C 196.4375 277.066406 196.953125 277.488281 197.425781 277.964844 C 197.898438 278.4375 198.324219 278.953125 198.695312 279.511719 C 199.066406 280.066406 199.382812 280.65625 199.640625 281.277344 C 199.894531 281.894531 200.089844 282.535156 200.21875 283.191406 C 200.351562 283.847656 200.417969 284.511719 200.417969 285.183594 C 200.417969 285.855469 200.351562 286.519531 200.21875 287.175781 C 200.089844 287.832031 199.894531 288.472656 199.640625 289.089844 C 199.382812 289.710938 199.066406 290.296875 198.695312 290.855469 C 198.324219 291.414062 197.898438 291.929688 197.425781 292.402344 C 196.953125 292.878906 196.4375 293.300781 195.878906 293.671875 C 195.320312 294.046875 194.734375 294.359375 194.113281 294.617188 C 193.492188 294.875 192.855469 295.066406 192.199219 295.199219 C 191.539062 295.328125 190.875 295.394531 190.207031 295.394531 Z M 190.207031 262.167969 C 189.464844 262.164062 188.734375 262.09375 188.007812 261.949219 C 187.28125 261.804688 186.574219 261.589844 185.890625 261.308594 C 185.207031 261.023438 184.558594 260.675781 183.941406 260.265625 C 183.328125 259.855469 182.757812 259.386719 182.234375 258.863281 C 181.710938 258.339844 181.246094 257.773438 180.832031 257.15625 C 180.421875 256.539062 180.074219 255.890625 179.792969 255.207031 C 179.507812 254.523438 179.292969 253.820312 179.148438 253.09375 C 179.003906 252.367188 178.933594 251.632812 178.933594 250.894531 C 178.933594 250.152344 179.003906 249.421875 179.148438 248.695312 C 179.292969 247.96875 179.507812 247.261719 179.792969 246.578125 C 180.074219 245.894531 180.421875 245.246094 180.832031 244.628906 C 181.246094 244.015625 181.710938 243.445312 182.234375 242.921875 C 182.757812 242.398438 183.328125 241.933594 183.941406 241.519531 C 184.558594 241.109375 185.207031 240.761719 185.890625 240.480469 C 186.574219 240.195312 187.28125 239.980469 188.007812 239.835938 C 188.734375 239.691406 189.464844 239.621094 190.207031 239.621094 C 190.945312 239.621094 191.679688 239.691406 192.40625 239.835938 C 193.132812 239.980469 193.835938 240.195312 194.519531 240.480469 C 195.203125 240.761719 195.851562 241.109375 196.46875 241.519531 C 197.085938 241.933594 197.652344 242.398438 198.175781 242.921875 C 198.699219 243.445312 199.167969 244.015625 199.578125 244.628906 C 199.988281 245.246094 200.335938 245.894531 200.621094 246.578125 C 200.902344 247.261719 201.117188 247.96875 201.261719 248.695312 C 201.40625 249.421875 201.476562 250.152344 201.476562 250.894531 C 201.476562 251.632812 201.398438 252.363281 201.253906 253.089844 C 201.105469 253.8125 200.890625 254.515625 200.605469 255.199219 C 200.320312 255.878906 199.972656 256.527344 199.5625 257.140625 C 199.148438 257.757812 198.683594 258.324219 198.160156 258.847656 C 197.636719 259.371094 197.070312 259.835938 196.453125 260.25 C 195.839844 260.660156 195.191406 261.007812 194.511719 261.292969 C 193.828125 261.578125 193.125 261.792969 192.402344 261.941406 C 191.675781 262.085938 190.945312 262.164062 190.207031 262.167969 Z M 192.921875 225.101562 C 192.917969 224.484375 192.945312 223.871094 193.003906 223.253906 C 193.0625 222.640625 193.152344 222.03125 193.269531 221.425781 C 193.390625 220.820312 193.539062 220.222656 193.714844 219.628906 C 193.894531 219.039062 194.097656 218.457031 194.332031 217.886719 C 194.566406 217.316406 194.828125 216.757812 195.117188 216.214844 C 195.40625 215.667969 195.722656 215.140625 196.066406 214.625 C 196.40625 214.113281 196.773438 213.617188 197.164062 213.136719 C 197.550781 212.660156 197.964844 212.203125 198.398438 211.765625 C 198.835938 211.328125 199.289062 210.914062 199.765625 210.519531 C 200.242188 210.128906 200.738281 209.757812 201.25 209.414062 C 201.761719 209.070312 202.289062 208.753906 202.832031 208.460938 C 203.375 208.167969 203.933594 207.902344 204.503906 207.664062 C 205.070312 207.429688 205.652344 207.21875 206.242188 207.039062 C 206.832031 206.859375 207.429688 206.707031 208.035156 206.585938 C 208.636719 206.464844 209.246094 206.371094 209.863281 206.308594 C 210.476562 206.25 211.089844 206.21875 211.707031 206.214844 C 212.324219 206.214844 212.941406 206.242188 213.554688 206.304688 C 214.167969 206.363281 214.777344 206.453125 215.382812 206.570312 C 215.988281 206.691406 216.589844 206.839844 217.179688 207.015625 C 217.769531 207.195312 218.351562 207.402344 218.921875 207.636719 C 219.492188 207.871094 220.046875 208.132812 220.59375 208.421875 C 221.136719 208.714844 221.667969 209.027344 222.179688 209.371094 C 222.695312 209.714844 223.191406 210.078125 223.667969 210.46875 C 224.144531 210.859375 224.601562 211.273438 225.039062 211.710938 C 225.476562 212.144531 225.890625 212.601562 226.285156 213.078125 C 226.675781 213.554688 227.042969 214.046875 227.386719 214.5625 C 227.730469 215.074219 228.046875 215.601562 228.339844 216.144531 C 228.632812 216.6875 228.894531 217.246094 229.132812 217.816406 C 229.371094 218.386719 229.578125 218.964844 229.757812 219.554688 C 229.9375 220.144531 230.085938 220.742188 230.207031 221.347656 C 230.328125 221.953125 230.421875 222.5625 230.480469 223.175781 C 230.542969 223.789062 230.574219 224.40625 230.574219 225.023438 C 230.574219 225.640625 230.546875 226.253906 230.484375 226.871094 C 230.425781 227.484375 230.335938 228.09375 230.214844 228.699219 C 230.097656 229.304688 229.949219 229.902344 229.769531 230.492188 C 229.589844 231.082031 229.382812 231.664062 229.148438 232.234375 C 228.910156 232.804688 228.648438 233.363281 228.359375 233.90625 C 228.066406 234.449219 227.75 234.980469 227.410156 235.492188 C 227.066406 236.003906 226.699219 236.5 226.308594 236.976562 C 225.917969 237.457031 225.503906 237.914062 225.066406 238.347656 C 224.632812 238.785156 224.175781 239.199219 223.699219 239.589844 C 223.222656 239.984375 222.726562 240.351562 222.214844 240.691406 C 221.699219 241.035156 221.171875 241.351562 220.628906 241.644531 C 220.085938 241.933594 219.527344 242.199219 218.957031 242.433594 C 218.386719 242.671875 217.808594 242.878906 217.214844 243.058594 C 216.625 243.238281 216.027344 243.386719 215.421875 243.507812 C 214.816406 243.628906 214.207031 243.71875 213.59375 243.78125 C 212.980469 243.839844 212.363281 243.871094 211.746094 243.871094 C 211.128906 243.871094 210.511719 243.839844 209.898438 243.777344 C 209.285156 243.71875 208.671875 243.628906 208.066406 243.507812 C 207.460938 243.386719 206.863281 243.234375 206.273438 243.054688 C 205.679688 242.875 205.101562 242.667969 204.53125 242.429688 C 203.957031 242.195312 203.402344 241.929688 202.855469 241.636719 C 202.3125 241.347656 201.78125 241.027344 201.269531 240.683594 C 200.757812 240.339844 200.261719 239.972656 199.785156 239.582031 C 199.308594 239.1875 198.851562 238.773438 198.414062 238.335938 C 197.976562 237.898438 197.5625 237.4375 197.171875 236.960938 C 196.78125 236.484375 196.414062 235.988281 196.074219 235.472656 C 195.730469 234.957031 195.414062 234.429688 195.125 233.882812 C 194.835938 233.335938 194.570312 232.777344 194.335938 232.207031 C 194.101562 231.636719 193.894531 231.054688 193.71875 230.460938 C 193.539062 229.871094 193.390625 229.273438 193.273438 228.664062 C 193.152344 228.058594 193.066406 227.449219 193.007812 226.832031 C 192.945312 226.21875 192.917969 225.601562 192.921875 224.984375 Z M 234.234375 274.441406 C 233.382812 274.441406 232.546875 274.335938 231.722656 274.125 C 230.894531 273.914062 230.109375 273.605469 229.363281 273.199219 C 228.617188 272.789062 227.929688 272.296875 227.304688 271.71875 C 226.683594 271.140625 226.140625 270.492188 225.675781 269.78125 C 224.933594 268.648438 224.4375 267.417969 224.191406 266.085938 C 223.945312 264.753906 223.96875 263.429688 224.261719 262.105469 C 224.539062 260.78125 225.0625 259.5625 225.828125 258.449219 C 226.597656 257.332031 227.550781 256.40625 228.6875 255.675781 C 229.824219 254.945312 231.054688 254.457031 232.382812 254.214844 C 233.710938 253.96875 235.035156 253.984375 236.359375 254.257812 C 237.683594 254.535156 238.902344 255.058594 240.019531 255.828125 C 241.132812 256.59375 242.058594 257.546875 242.792969 258.683594 C 243.289062 259.453125 243.679688 260.277344 243.953125 261.152344 C 244.230469 262.027344 244.386719 262.921875 244.421875 263.839844 C 244.457031 264.757812 244.371094 265.660156 244.164062 266.554688 C 243.953125 267.449219 243.628906 268.296875 243.191406 269.105469 C 242.753906 269.910156 242.21875 270.644531 241.582031 271.304688 C 240.945312 271.96875 240.234375 272.535156 239.445312 273.003906 C 238.65625 273.472656 237.820312 273.828125 236.9375 274.074219 C 236.050781 274.316406 235.152344 274.441406 234.234375 274.441406 Z M 256.1875 287.542969 C 255.984375 288.59375 255.582031 289.5625 254.976562 290.445312 C 254.371094 291.324219 253.613281 292.050781 252.707031 292.621094 C 252.261719 292.90625 251.796875 293.148438 251.304688 293.34375 C 250.8125 293.539062 250.304688 293.683594 249.785156 293.78125 C 249.265625 293.878906 248.742188 293.921875 248.210938 293.914062 C 247.683594 293.90625 247.160156 293.851562 246.644531 293.742188 C 246.125 293.628906 245.625 293.472656 245.136719 293.265625 C 244.652344 293.054688 244.1875 292.800781 243.753906 292.503906 C 243.316406 292.207031 242.914062 291.867188 242.542969 291.488281 C 242.171875 291.113281 241.84375 290.703125 241.550781 290.257812 C 240.992188 289.382812 240.617188 288.4375 240.421875 287.417969 C 240.230469 286.394531 240.230469 285.375 240.429688 284.355469 C 240.664062 283.320312 241.085938 282.363281 241.6875 281.484375 C 242.289062 280.609375 243.03125 279.875 243.914062 279.28125 C 244.789062 278.726562 245.738281 278.351562 246.757812 278.15625 C 247.777344 277.964844 248.796875 277.964844 249.816406 278.160156 C 250.851562 278.394531 251.808594 278.8125 252.6875 279.414062 C 253.5625 280.015625 254.296875 280.757812 254.890625 281.640625 C 255.527344 282.464844 255.980469 283.375 256.257812 284.378906 C 256.535156 285.378906 256.609375 286.394531 256.484375 287.425781 Z M 259.375 233.777344 C 258.359375 234.875 257.171875 235.734375 255.808594 236.359375 C 254.449219 236.984375 253.023438 237.324219 251.527344 237.378906 L 251.113281 237.378906 C 249.683594 237.378906 248.308594 237.113281 246.980469 236.585938 C 245.65625 236.054688 244.476562 235.296875 243.441406 234.308594 C 242.339844 233.296875 241.484375 232.109375 240.867188 230.746094 C 240.253906 229.382812 239.929688 227.953125 239.898438 226.460938 C 239.859375 225.714844 239.894531 224.972656 240.003906 224.230469 C 240.113281 223.492188 240.292969 222.769531 240.546875 222.066406 C 240.800781 221.367188 241.117188 220.695312 241.507812 220.054688 C 241.894531 219.417969 242.339844 218.820312 242.84375 218.273438 C 243.351562 217.722656 243.90625 217.226562 244.511719 216.789062 C 245.117188 216.351562 245.757812 215.976562 246.4375 215.664062 C 247.117188 215.355469 247.820312 215.113281 248.546875 214.945312 C 249.277344 214.773438 250.011719 214.679688 250.757812 214.65625 C 251.878906 214.605469 252.980469 214.71875 254.0625 215 C 255.148438 215.277344 256.167969 215.710938 257.121094 216.292969 C 258.074219 216.878906 258.921875 217.589844 259.664062 218.429688 C 260.40625 219.265625 261.007812 220.195312 261.472656 221.214844 C 261.9375 222.234375 262.238281 223.296875 262.382812 224.410156 C 262.527344 225.519531 262.507812 226.625 262.320312 227.730469 C 262.132812 228.832031 261.789062 229.886719 261.289062 230.886719 C 260.785156 231.886719 260.148438 232.792969 259.375 233.601562 Z M 269.054688 123.234375 C 269.546875 122.765625 270.082031 122.351562 270.65625 121.988281 C 271.226562 121.628906 271.832031 121.324219 272.464844 121.082031 C 273.097656 120.835938 273.75 120.660156 274.417969 120.542969 C 275.085938 120.429688 275.761719 120.378906 276.441406 120.398438 C 277.117188 120.414062 277.789062 120.5 278.449219 120.648438 C 279.113281 120.796875 279.753906 121.011719 280.375 121.285156 C 280.992188 121.5625 281.582031 121.894531 282.136719 122.289062 C 282.6875 122.679688 283.199219 123.121094 283.667969 123.613281 C 284.132812 124.105469 284.550781 124.640625 284.910156 125.214844 C 285.273438 125.789062 285.574219 126.390625 285.820312 127.027344 C 286.0625 127.660156 286.242188 128.308594 286.355469 128.980469 C 286.46875 129.648438 286.519531 130.320312 286.5 131 C 286.484375 131.679688 286.398438 132.347656 286.25 133.011719 C 286.097656 133.671875 285.886719 134.3125 285.609375 134.933594 C 285.332031 135.554688 285 136.140625 284.605469 136.695312 C 284.214844 137.25 283.773438 137.757812 283.277344 138.226562 C 282.332031 139.105469 281.257812 139.777344 280.054688 140.246094 C 278.851562 140.714844 277.605469 140.949219 276.316406 140.941406 L 275.960938 140.941406 C 274.609375 140.910156 273.316406 140.609375 272.085938 140.046875 C 270.855469 139.484375 269.785156 138.699219 268.878906 137.695312 C 268.414062 137.210938 268.003906 136.683594 267.644531 136.117188 C 267.289062 135.550781 266.988281 134.953125 266.75 134.324219 C 266.511719 133.699219 266.335938 133.054688 266.226562 132.394531 C 266.113281 131.730469 266.070312 131.066406 266.089844 130.394531 C 266.113281 129.726562 266.203125 129.0625 266.355469 128.410156 C 266.507812 127.757812 266.726562 127.125 267.007812 126.515625 C 267.285156 125.90625 267.621094 125.332031 268.019531 124.789062 C 268.414062 124.246094 268.855469 123.746094 269.351562 123.292969 Z M 275.960938 180.484375 C 276.632812 180.484375 277.296875 180.550781 277.953125 180.679688 C 278.613281 180.8125 279.253906 181.003906 279.871094 181.261719 C 280.492188 181.519531 281.082031 181.835938 281.640625 182.207031 C 282.195312 182.582031 282.714844 183.007812 283.1875 183.480469 C 283.660156 183.957031 284.085938 184.472656 284.457031 185.03125 C 284.828125 185.589844 285.144531 186.179688 285.398438 186.800781 C 285.65625 187.421875 285.847656 188.058594 285.976562 188.71875 C 286.109375 189.378906 286.171875 190.042969 286.171875 190.714844 C 286.167969 191.386719 286.101562 192.050781 285.96875 192.707031 C 285.839844 193.367188 285.644531 194.003906 285.382812 194.625 C 285.125 195.242188 284.808594 195.832031 284.433594 196.390625 C 284.0625 196.945312 283.636719 197.460938 283.160156 197.933594 C 282.683594 198.40625 282.164062 198.828125 281.605469 199.203125 C 281.046875 199.574219 280.457031 199.886719 279.835938 200.140625 C 279.214844 200.394531 278.574219 200.585938 277.917969 200.714844 C 277.257812 200.84375 276.59375 200.90625 275.921875 200.902344 C 275.25 200.902344 274.585938 200.832031 273.925781 200.699219 C 273.269531 200.566406 272.632812 200.371094 272.011719 200.109375 C 271.394531 199.851562 270.804688 199.53125 270.25 199.15625 C 269.691406 198.78125 269.179688 198.355469 268.707031 197.878906 C 268.234375 197.402344 267.8125 196.882812 267.441406 196.324219 C 267.074219 195.761719 266.761719 195.171875 266.507812 194.550781 C 266.253906 193.929688 266.0625 193.289062 265.9375 192.628906 C 265.808594 191.972656 265.746094 191.304688 265.75 190.636719 C 265.746094 189.949219 265.808594 189.269531 265.941406 188.597656 C 266.074219 187.925781 266.273438 187.273438 266.539062 186.640625 C 266.800781 186.007812 267.125 185.40625 267.511719 184.839844 C 267.894531 184.273438 268.332031 183.75 268.824219 183.269531 C 269.3125 182.789062 269.847656 182.367188 270.421875 181.992188 C 271 181.621094 271.605469 181.3125 272.242188 181.0625 C 272.882812 180.8125 273.539062 180.628906 274.214844 180.511719 C 274.890625 180.394531 275.570312 180.34375 276.253906 180.367188 Z M 284.105469 256.265625 C 283.183594 257.265625 282.101562 258.046875 280.863281 258.609375 C 279.625 259.171875 278.324219 259.472656 276.964844 259.511719 L 276.609375 259.511719 C 275.320312 259.515625 274.070312 259.285156 272.867188 258.816406 C 271.664062 258.347656 270.589844 257.675781 269.644531 256.796875 C 269.164062 256.335938 268.730469 255.835938 268.34375 255.289062 C 267.960938 254.746094 267.632812 254.171875 267.359375 253.5625 C 267.085938 252.953125 266.878906 252.324219 266.730469 251.675781 C 266.578125 251.027344 266.496094 250.367188 266.476562 249.703125 C 266.457031 249.035156 266.5 248.375 266.609375 247.71875 C 266.71875 247.058594 266.890625 246.417969 267.125 245.796875 C 267.363281 245.171875 267.65625 244.578125 268.007812 244.011719 C 268.359375 243.445312 268.761719 242.917969 269.214844 242.429688 C 269.667969 241.945312 270.167969 241.503906 270.707031 241.117188 C 271.246094 240.726562 271.820312 240.390625 272.425781 240.113281 C 273.03125 239.835938 273.660156 239.621094 274.308594 239.464844 C 274.957031 239.3125 275.613281 239.21875 276.277344 239.195312 C 276.945312 239.167969 277.605469 239.207031 278.265625 239.308594 C 278.921875 239.414062 279.5625 239.578125 280.191406 239.808594 C 280.816406 240.035156 281.414062 240.324219 281.984375 240.667969 C 282.550781 241.015625 283.082031 241.414062 283.574219 241.863281 C 284.0625 242.320312 284.503906 242.820312 284.894531 243.363281 C 285.285156 243.902344 285.621094 244.480469 285.898438 245.085938 C 286.175781 245.695312 286.390625 246.324219 286.546875 246.976562 C 286.699219 247.625 286.789062 248.285156 286.8125 248.953125 C 286.839844 249.621094 286.796875 250.285156 286.691406 250.945312 C 286.585938 251.605469 286.417969 252.25 286.183594 252.878906 C 285.953125 253.503906 285.660156 254.101562 285.3125 254.671875 C 284.960938 255.242188 284.558594 255.773438 284.105469 256.265625 Z M 301.8125 198.484375 C 301.28125 198.484375 300.753906 198.433594 300.234375 198.328125 C 299.714844 198.226562 299.207031 198.070312 298.71875 197.867188 C 298.226562 197.664062 297.761719 197.417969 297.320312 197.121094 C 296.878906 196.828125 296.46875 196.492188 296.09375 196.117188 C 295.71875 195.742188 295.382812 195.332031 295.089844 194.890625 C 294.792969 194.449219 294.542969 193.984375 294.339844 193.492188 C 294.136719 193.003906 293.984375 192.496094 293.878906 191.976562 C 293.777344 191.457031 293.726562 190.929688 293.726562 190.398438 C 293.726562 189.867188 293.777344 189.34375 293.878906 188.820312 C 293.984375 188.300781 294.136719 187.796875 294.339844 187.304688 C 294.542969 186.8125 294.792969 186.347656 295.089844 185.90625 C 295.382812 185.464844 295.71875 185.058594 296.09375 184.679688 C 296.46875 184.304688 296.878906 183.96875 297.320312 183.675781 C 297.761719 183.378906 298.226562 183.132812 298.71875 182.929688 C 299.207031 182.726562 299.714844 182.570312 300.234375 182.46875 C 300.753906 182.363281 301.28125 182.3125 301.8125 182.3125 C 302.34375 182.3125 302.867188 182.363281 303.386719 182.46875 C 303.910156 182.570312 304.414062 182.726562 304.90625 182.929688 C 305.394531 183.132812 305.863281 183.378906 306.304688 183.675781 C 306.746094 183.96875 307.152344 184.304688 307.527344 184.679688 C 307.902344 185.058594 308.238281 185.464844 308.535156 185.90625 C 308.828125 186.347656 309.078125 186.8125 309.28125 187.304688 C 309.484375 187.796875 309.636719 188.300781 309.742188 188.820312 C 309.84375 189.34375 309.898438 189.867188 309.898438 190.398438 C 309.910156 190.914062 309.871094 191.425781 309.785156 191.933594 C 309.699219 192.441406 309.566406 192.9375 309.382812 193.417969 C 309.203125 193.902344 308.976562 194.363281 308.707031 194.800781 C 308.4375 195.238281 308.125 195.648438 307.777344 196.027344 C 307.429688 196.40625 307.046875 196.746094 306.632812 197.054688 C 306.214844 197.359375 305.777344 197.621094 305.308594 197.84375 C 304.84375 198.0625 304.363281 198.238281 303.863281 198.367188 C 303.363281 198.492188 302.855469 198.570312 302.34375 198.601562 Z M 301.8125 198.484375 " fill-opacity="1" fill-rule="nonzero"/></svg>