<svg xmlns="http://www.w3.org/2000/svg" xmlns:xlink="http://www.w3.org/1999/xlink" width="500" zoomAndPan="magnify" viewBox="0 0 375 374.999991" height="500" preserveAspectRatio="xMidYMid meet" version="1.0"><defs><clipPath id="303096657e"><path d="M 5.8125 5.8125 L 369.5625 5.8125 L 369.5625 369.5625 L 5.8125 369.5625 Z M 5.8125 5.8125 " clip-rule="nonzero"/></clipPath></defs><rect x="-37.5" width="450" fill="#ffffff" y="-37.499999" height="449.999989" fill-opacity="1"/><rect x="-37.5" width="450" fill="#171717" y="-37.499999" height="449.999989" fill-opacity="1"/><path fill="#737373" d="M 110.59375 142.183594 L 243.042969 142.183594 L 264.691406 116.210938 L 132.238281 116.210938 Z M 110.59375 142.183594 " fill-opacity="1" fill-rule="nonzero"/><path fill="#737373" d="M 110.59375 174.65625 L 132.238281 200.628906 L 264.691406 200.628906 L 243.042969 174.65625 Z M 110.59375 174.65625 " fill-opacity="1" fill-rule="nonzero"/><path fill="#737373" d="M 110.59375 259.074219 L 243.042969 259.074219 L 264.691406 233.097656 L 132.238281 233.097656 Z M 110.59375 259.074219 " fill-opacity="1" fill-rule="nonzero"/><g clip-path="url(#303096657e)"><path fill="#737373" d="M 187.640625 5.8125 C 184.667969 5.8125 181.691406 5.886719 178.71875 6.03125 C 175.746094 6.179688 172.78125 6.398438 169.820312 6.691406 C 166.859375 6.980469 163.90625 7.34375 160.960938 7.78125 C 158.019531 8.21875 155.085938 8.726562 152.167969 9.308594 C 149.25 9.886719 146.347656 10.539062 143.460938 11.261719 C 140.574219 11.984375 137.707031 12.78125 134.859375 13.644531 C 132.011719 14.507812 129.1875 15.441406 126.386719 16.441406 C 123.585938 17.445312 120.808594 18.515625 118.058594 19.65625 C 115.308594 20.792969 112.589844 22 109.902344 23.269531 C 107.210938 24.542969 104.554688 25.882812 101.929688 27.285156 C 99.304688 28.6875 96.714844 30.152344 94.164062 31.683594 C 91.613281 33.210938 89.097656 34.804688 86.625 36.457031 C 84.148438 38.109375 81.71875 39.824219 79.328125 41.597656 C 76.9375 43.367188 74.59375 45.199219 72.292969 47.085938 C 69.992188 48.976562 67.738281 50.917969 65.535156 52.917969 C 63.328125 54.914062 61.175781 56.964844 59.070312 59.070312 C 56.964844 61.175781 54.914062 63.328125 52.917969 65.535156 C 50.917969 67.738281 48.976562 69.992188 47.085938 72.292969 C 45.199219 74.589844 43.367188 76.9375 41.597656 79.328125 C 39.824219 81.71875 38.109375 84.148438 36.457031 86.625 C 34.804688 89.097656 33.210938 91.609375 31.683594 94.164062 C 30.152344 96.714844 28.6875 99.304688 27.285156 101.929688 C 25.882812 104.554688 24.542969 107.210938 23.269531 109.902344 C 22 112.589844 20.792969 115.308594 19.65625 118.058594 C 18.515625 120.808594 17.445312 123.585938 16.441406 126.386719 C 15.441406 129.1875 14.507812 132.011719 13.644531 134.859375 C 12.78125 137.707031 11.984375 140.574219 11.261719 143.460938 C 10.539062 146.347656 9.886719 149.25 9.308594 152.167969 C 8.726562 155.085938 8.21875 158.019531 7.78125 160.960938 C 7.34375 163.90625 6.980469 166.859375 6.691406 169.820312 C 6.398438 172.78125 6.179688 175.746094 6.03125 178.71875 C 5.886719 181.691406 5.8125 184.667969 5.8125 187.640625 C 5.8125 190.617188 5.886719 193.589844 6.03125 196.5625 C 6.179688 199.535156 6.398438 202.503906 6.691406 205.464844 C 6.980469 208.425781 7.34375 211.378906 7.78125 214.320312 C 8.21875 217.265625 8.726562 220.195312 9.308594 223.113281 C 9.886719 226.035156 10.539062 228.9375 11.261719 231.824219 C 11.984375 234.710938 12.78125 237.578125 13.644531 240.425781 C 14.507812 243.273438 15.441406 246.097656 16.441406 248.898438 C 17.445312 251.699219 18.515625 254.476562 19.65625 257.222656 C 20.792969 259.972656 22 262.695312 23.269531 265.382812 C 24.542969 268.074219 25.882812 270.730469 27.285156 273.355469 C 28.6875 275.980469 30.152344 278.566406 31.683594 281.121094 C 33.210938 283.671875 34.804688 286.1875 36.457031 288.660156 C 38.109375 291.132812 39.824219 293.566406 41.597656 295.957031 C 43.367188 298.347656 45.199219 300.691406 47.085938 302.992188 C 48.976562 305.292969 50.917969 307.546875 52.917969 309.75 C 54.914062 311.957031 56.964844 314.109375 59.070312 316.214844 C 61.175781 318.316406 63.328125 320.371094 65.535156 322.367188 C 67.738281 324.367188 69.992188 326.308594 72.292969 328.195312 C 74.59375 330.085938 76.9375 331.914062 79.328125 333.6875 C 81.71875 335.460938 84.148438 337.171875 86.625 338.828125 C 89.097656 340.480469 91.613281 342.070312 94.164062 343.601562 C 96.714844 345.132812 99.304688 346.597656 101.929688 348 C 104.554688 349.402344 107.210938 350.742188 109.902344 352.011719 C 112.589844 353.285156 115.308594 354.492188 118.058594 355.628906 C 120.808594 356.769531 123.585938 357.839844 126.386719 358.839844 C 129.1875 359.84375 132.011719 360.777344 134.859375 361.640625 C 137.707031 362.503906 140.574219 363.296875 143.460938 364.019531 C 146.347656 364.742188 149.25 365.394531 152.167969 365.976562 C 155.085938 366.558594 158.019531 367.066406 160.960938 367.503906 C 163.90625 367.9375 166.859375 368.304688 169.820312 368.59375 C 172.78125 368.886719 175.746094 369.105469 178.71875 369.25 C 181.691406 369.398438 184.667969 369.46875 187.640625 369.46875 C 190.617188 369.46875 193.589844 369.398438 196.5625 369.25 C 199.535156 369.105469 202.503906 368.886719 205.464844 368.59375 C 208.425781 368.304688 211.378906 367.9375 214.320312 367.503906 C 217.265625 367.066406 220.195312 366.558594 223.113281 365.976562 C 226.035156 365.394531 228.9375 364.742188 231.824219 364.019531 C 234.710938 363.296875 237.578125 362.503906 240.425781 361.640625 C 243.273438 360.777344 246.097656 359.84375 248.898438 358.839844 C 251.699219 357.839844 254.476562 356.769531 257.226562 355.628906 C 259.972656 354.492188 262.695312 353.285156 265.382812 352.011719 C 268.074219 350.742188 270.730469 349.402344 273.355469 348 C 275.980469 346.597656 278.566406 345.132812 281.121094 343.601562 C 283.671875 342.070312 286.1875 340.480469 288.660156 338.828125 C 291.132812 337.171875 293.566406 335.460938 295.957031 333.6875 C 298.347656 331.914062 300.691406 330.085938 302.992188 328.195312 C 305.292969 326.308594 307.546875 324.367188 309.75 322.367188 C 311.957031 320.371094 314.109375 318.316406 316.214844 316.214844 C 318.316406 314.109375 320.371094 311.957031 322.367188 309.75 C 324.367188 307.546875 326.308594 305.292969 328.195312 302.992188 C 330.085938 300.691406 331.914062 298.347656 333.6875 295.957031 C 335.460938 293.566406 337.171875 291.132812 338.828125 288.660156 C 340.480469 286.1875 342.070312 283.671875 343.601562 281.121094 C 345.132812 278.566406 346.597656 275.980469 348 273.355469 C 349.402344 270.730469 350.742188 268.074219 352.011719 265.382812 C 353.285156 262.695312 354.492188 259.972656 355.628906 257.222656 C 356.769531 254.476562 357.839844 251.699219 358.839844 248.898438 C 359.84375 246.097656 360.777344 243.273438 361.640625 240.425781 C 362.503906 237.578125 363.296875 234.710938 364.019531 231.824219 C 364.742188 228.9375 365.394531 226.035156 365.976562 223.113281 C 366.558594 220.195312 367.066406 217.265625 367.503906 214.320312 C 367.9375 211.378906 368.304688 208.425781 368.59375 205.464844 C 368.886719 202.503906 369.105469 199.535156 369.25 196.5625 C 369.398438 193.589844 369.46875 190.617188 369.46875 187.640625 C 369.46875 184.667969 369.390625 181.695312 369.242188 178.722656 C 369.09375 175.753906 368.871094 172.785156 368.574219 169.828125 C 368.28125 166.867188 367.914062 163.914062 367.476562 160.972656 C 367.035156 158.03125 366.523438 155.101562 365.941406 152.183594 C 365.359375 149.265625 364.707031 146.363281 363.980469 143.480469 C 363.253906 140.59375 362.460938 137.730469 361.59375 134.882812 C 360.730469 132.039062 359.792969 129.214844 358.789062 126.414062 C 357.785156 123.613281 356.714844 120.839844 355.574219 118.089844 C 354.433594 115.34375 353.226562 112.625 351.953125 109.9375 C 350.679688 107.25 349.34375 104.59375 347.9375 101.96875 C 346.535156 99.347656 345.070312 96.761719 343.539062 94.207031 C 342.007812 91.65625 340.417969 89.144531 338.761719 86.671875 C 337.109375 84.199219 335.394531 81.769531 333.625 79.378906 C 331.851562 76.992188 330.019531 74.648438 328.132812 72.347656 C 326.246094 70.046875 324.304688 67.796875 322.304688 65.59375 C 320.308594 63.386719 318.257812 61.234375 316.152344 59.132812 C 314.050781 57.027344 311.894531 54.976562 309.691406 52.980469 C 307.488281 50.980469 305.234375 49.039062 302.9375 47.152344 C 300.636719 45.261719 298.292969 43.433594 295.90625 41.660156 C 293.515625 39.886719 291.085938 38.175781 288.609375 36.519531 C 286.136719 34.867188 283.625 33.277344 281.074219 31.746094 C 278.523438 30.214844 275.9375 28.75 273.3125 27.34375 C 270.691406 25.941406 268.035156 24.601562 265.347656 23.328125 C 262.660156 22.058594 259.941406 20.851562 257.191406 19.710938 C 254.445312 18.570312 251.671875 17.5 248.871094 16.496094 C 246.070312 15.492188 243.246094 14.554688 240.402344 13.691406 C 237.554688 12.824219 234.6875 12.027344 231.804688 11.304688 C 228.917969 10.578125 226.019531 9.925781 223.101562 9.34375 C 220.183594 8.757812 217.253906 8.25 214.3125 7.808594 C 211.371094 7.371094 208.417969 7.003906 205.457031 6.707031 C 202.496094 6.414062 199.53125 6.191406 196.5625 6.042969 C 193.589844 5.894531 190.617188 5.816406 187.640625 5.8125 Z M 187.640625 356.484375 C 184.878906 356.484375 182.117188 356.414062 179.359375 356.277344 C 176.597656 356.144531 173.84375 355.941406 171.09375 355.667969 C 168.34375 355.398438 165.601562 355.058594 162.867188 354.65625 C 160.132812 354.25 157.414062 353.777344 154.703125 353.238281 C 151.992188 352.699219 149.296875 352.09375 146.617188 351.421875 C 143.9375 350.75 141.273438 350.015625 138.628906 349.210938 C 135.984375 348.410156 133.363281 347.542969 130.761719 346.613281 C 128.160156 345.683594 125.582031 344.6875 123.03125 343.628906 C 120.476562 342.574219 117.953125 341.453125 115.453125 340.273438 C 112.957031 339.089844 110.488281 337.847656 108.050781 336.546875 C 105.613281 335.242188 103.210938 333.882812 100.839844 332.460938 C 98.46875 331.039062 96.136719 329.5625 93.839844 328.027344 C 91.542969 326.492188 89.285156 324.902344 87.0625 323.257812 C 84.84375 321.609375 82.667969 319.910156 80.53125 318.15625 C 78.394531 316.40625 76.304688 314.601562 74.253906 312.746094 C 72.207031 310.890625 70.207031 308.984375 68.253906 307.03125 C 66.300781 305.078125 64.394531 303.074219 62.539062 301.027344 C 60.683594 298.980469 58.878906 296.890625 57.125 294.753906 C 55.375 292.617188 53.675781 290.441406 52.027344 288.21875 C 50.382812 286 48.792969 283.742188 47.257812 281.445312 C 45.722656 279.148438 44.242188 276.8125 42.824219 274.441406 C 41.402344 272.074219 40.039062 269.667969 38.738281 267.234375 C 37.4375 264.796875 36.195312 262.328125 35.011719 259.832031 C 33.832031 257.332031 32.710938 254.808594 31.652344 252.253906 C 30.597656 249.703125 29.601562 247.125 28.671875 244.523438 C 27.742188 241.921875 26.875 239.296875 26.070312 236.652344 C 25.269531 234.007812 24.53125 231.347656 23.863281 228.667969 C 23.191406 225.988281 22.585938 223.292969 22.046875 220.582031 C 21.507812 217.871094 21.035156 215.148438 20.628906 212.417969 C 20.222656 209.683594 19.886719 206.941406 19.613281 204.191406 C 19.34375 201.441406 19.140625 198.6875 19.003906 195.925781 C 18.871094 193.167969 18.800781 190.40625 18.800781 187.640625 C 18.800781 184.878906 18.871094 182.117188 19.003906 179.355469 C 19.140625 176.597656 19.34375 173.84375 19.613281 171.09375 C 19.886719 168.34375 20.222656 165.601562 20.628906 162.867188 C 21.035156 160.132812 21.507812 157.414062 22.046875 154.703125 C 22.585938 151.992188 23.191406 149.296875 23.863281 146.617188 C 24.53125 143.9375 25.269531 141.273438 26.070312 138.628906 C 26.875 135.984375 27.742188 133.363281 28.671875 130.761719 C 29.601562 128.160156 30.597656 125.582031 31.652344 123.03125 C 32.710938 120.476562 33.832031 117.953125 35.011719 115.453125 C 36.195312 112.957031 37.4375 110.488281 38.738281 108.050781 C 40.039062 105.613281 41.402344 103.210938 42.824219 100.839844 C 44.242188 98.46875 45.722656 96.136719 47.257812 93.839844 C 48.792969 91.542969 50.382812 89.285156 52.027344 87.0625 C 53.675781 84.84375 55.375 82.667969 57.125 80.53125 C 58.878906 78.394531 60.683594 76.304688 62.539062 74.253906 C 64.394531 72.207031 66.300781 70.207031 68.253906 68.253906 C 70.207031 66.300781 72.207031 64.394531 74.253906 62.539062 C 76.304688 60.683594 78.394531 58.878906 80.53125 57.125 C 82.667969 55.375 84.84375 53.675781 87.0625 52.027344 C 89.285156 50.382812 91.542969 48.792969 93.839844 47.257812 C 96.136719 45.722656 98.46875 44.242188 100.839844 42.824219 C 103.210938 41.402344 105.613281 40.039062 108.050781 38.738281 C 110.488281 37.433594 112.957031 36.195312 115.453125 35.011719 C 117.953125 33.832031 120.476562 32.710938 123.03125 31.652344 C 125.582031 30.597656 128.160156 29.601562 130.761719 28.671875 C 133.363281 27.742188 135.984375 26.875 138.628906 26.070312 C 141.273438 25.269531 143.9375 24.53125 146.617188 23.863281 C 149.296875 23.191406 151.992188 22.585938 154.703125 22.046875 C 157.414062 21.507812 160.132812 21.035156 162.867188 20.628906 C 165.601562 20.222656 168.34375 19.886719 171.09375 19.613281 C 173.84375 19.34375 176.597656 19.140625 179.359375 19.003906 C 182.117188 18.871094 184.878906 18.800781 187.640625 18.800781 C 190.40625 18.800781 193.167969 18.871094 195.925781 19.003906 C 198.6875 19.140625 201.441406 19.34375 204.191406 19.613281 C 206.941406 19.886719 209.683594 20.222656 212.417969 20.628906 C 215.148438 21.035156 217.871094 21.507812 220.582031 22.046875 C 223.292969 22.585938 225.988281 23.191406 228.667969 23.863281 C 231.347656 24.53125 234.007812 25.269531 236.652344 26.070312 C 239.296875 26.875 241.921875 27.742188 244.523438 28.671875 C 247.125 29.601562 249.703125 30.597656 252.253906 31.652344 C 254.808594 32.710938 257.332031 33.832031 259.832031 35.011719 C 262.328125 36.195312 264.796875 37.433594 267.234375 38.738281 C 269.667969 40.039062 272.074219 41.402344 274.445312 42.824219 C 276.8125 44.242188 279.148438 45.722656 281.445312 47.257812 C 283.742188 48.792969 286 50.382812 288.21875 52.027344 C 290.441406 53.675781 292.617188 55.375 294.753906 57.125 C 296.890625 58.878906 298.980469 60.683594 301.027344 62.539062 C 303.074219 64.394531 305.078125 66.300781 307.03125 68.253906 C 308.984375 70.207031 310.890625 72.207031 312.746094 74.253906 C 314.601562 76.304688 316.40625 78.394531 318.15625 80.53125 C 319.910156 82.667969 321.609375 84.84375 323.257812 87.0625 C 324.902344 89.285156 326.492188 91.542969 328.027344 93.839844 C 329.5625 96.136719 331.039062 98.46875 332.460938 100.839844 C 333.882812 103.210938 335.242188 105.613281 336.546875 108.050781 C 337.847656 110.488281 339.089844 112.957031 340.273438 115.453125 C 341.453125 117.953125 342.574219 120.476562 343.628906 123.03125 C 344.6875 125.582031 345.683594 128.160156 346.613281 130.761719 C 347.542969 133.363281 348.410156 135.984375 349.210938 138.628906 C 350.015625 141.273438 350.75 143.9375 351.421875 146.617188 C 352.09375 149.296875 352.699219 151.992188 353.238281 154.703125 C 353.777344 157.414062 354.25 160.132812 354.65625 162.867188 C 355.058594 165.601562 355.398438 168.34375 355.667969 171.09375 C 355.941406 173.84375 356.144531 176.597656 356.277344 179.355469 C 356.414062 182.117188 356.484375 184.878906 356.484375 187.640625 C 356.480469 190.40625 356.410156 193.164062 356.269531 195.921875 C 356.132812 198.683594 355.925781 201.4375 355.652344 204.183594 C 355.378906 206.933594 355.039062 209.675781 354.628906 212.40625 C 354.222656 215.136719 353.746094 217.859375 353.207031 220.566406 C 352.664062 223.277344 352.058594 225.96875 351.382812 228.648438 C 350.710938 231.328125 349.972656 233.988281 349.167969 236.632812 C 348.363281 239.273438 347.496094 241.894531 346.566406 244.496094 C 345.632812 247.097656 344.636719 249.671875 343.578125 252.222656 C 342.519531 254.777344 341.398438 257.300781 340.21875 259.796875 C 339.035156 262.292969 337.792969 264.757812 336.488281 267.195312 C 335.183594 269.628906 333.824219 272.03125 332.402344 274.402344 C 330.980469 276.769531 329.503906 279.101562 327.96875 281.398438 C 326.433594 283.695312 324.84375 285.953125 323.195312 288.171875 C 321.550781 290.390625 319.851562 292.566406 318.097656 294.699219 C 316.34375 296.835938 314.542969 298.925781 312.6875 300.972656 C 310.832031 303.019531 308.925781 305.019531 306.972656 306.972656 C 305.019531 308.925781 303.019531 310.832031 300.972656 312.6875 C 298.925781 314.542969 296.835938 316.34375 294.699219 318.097656 C 292.566406 319.851562 290.390625 321.550781 288.171875 323.195312 C 285.953125 324.84375 283.695312 326.433594 281.398438 327.96875 C 279.101562 329.503906 276.769531 330.980469 274.402344 332.402344 C 272.03125 333.824219 269.628906 335.183594 267.195312 336.488281 C 264.757812 337.792969 262.292969 339.035156 259.796875 340.21875 C 257.300781 341.398438 254.777344 342.519531 252.222656 343.578125 C 249.671875 344.636719 247.097656 345.632812 244.496094 346.566406 C 241.894531 347.496094 239.273438 348.363281 236.632812 349.167969 C 233.988281 349.972656 231.328125 350.710938 228.648438 351.382812 C 225.96875 352.058594 223.277344 352.664062 220.566406 353.207031 C 217.859375 353.746094 215.136719 354.222656 212.40625 354.628906 C 209.675781 355.039062 206.933594 355.378906 204.183594 355.652344 C 201.4375 355.925781 198.683594 356.132812 195.925781 356.269531 C 193.164062 356.410156 190.40625 356.480469 187.640625 356.484375 Z M 187.640625 356.484375 " fill-opacity="1" fill-rule="nonzero"/></g><path fill="#737373" d="M 187.640625 31.789062 C 185.089844 31.789062 182.542969 31.851562 179.996094 31.976562 C 177.445312 32.101562 174.902344 32.289062 172.367188 32.539062 C 169.828125 32.789062 167.296875 33.101562 164.773438 33.476562 C 162.25 33.851562 159.738281 34.285156 157.238281 34.785156 C 154.734375 35.28125 152.246094 35.839844 149.773438 36.460938 C 147.296875 37.078125 144.839844 37.761719 142.402344 38.5 C 139.960938 39.242188 137.539062 40.039062 135.136719 40.898438 C 132.734375 41.757812 130.355469 42.675781 128 43.652344 C 125.644531 44.628906 123.3125 45.664062 121.007812 46.753906 C 118.699219 47.84375 116.421875 48.988281 114.171875 50.191406 C 111.925781 51.394531 109.707031 52.652344 107.519531 53.960938 C 105.328125 55.273438 103.175781 56.636719 101.054688 58.054688 C 98.933594 59.472656 96.847656 60.941406 94.800781 62.460938 C 92.753906 63.980469 90.742188 65.546875 88.769531 67.167969 C 86.796875 68.785156 84.867188 70.449219 82.976562 72.164062 C 81.089844 73.875 79.242188 75.632812 77.4375 77.4375 C 75.632812 79.242188 73.875 81.085938 72.164062 82.976562 C 70.449219 84.867188 68.785156 86.796875 67.167969 88.769531 C 65.546875 90.742188 63.980469 92.753906 62.460938 94.800781 C 60.941406 96.847656 59.472656 98.933594 58.054688 101.054688 C 56.636719 103.175781 55.273438 105.328125 53.960938 107.519531 C 52.652344 109.707031 51.394531 111.925781 50.191406 114.171875 C 48.988281 116.421875 47.84375 118.699219 46.753906 121.007812 C 45.664062 123.3125 44.628906 125.644531 43.652344 128 C 42.675781 130.355469 41.757812 132.734375 40.898438 135.136719 C 40.039062 137.539062 39.242188 139.960938 38.5 142.398438 C 37.761719 144.839844 37.078125 147.296875 36.460938 149.773438 C 35.839844 152.246094 35.28125 154.734375 34.785156 157.238281 C 34.285156 159.738281 33.851562 162.25 33.476562 164.773438 C 33.101562 167.296875 32.789062 169.828125 32.539062 172.367188 C 32.289062 174.902344 32.101562 177.445312 31.976562 179.996094 C 31.851562 182.542969 31.789062 185.089844 31.789062 187.640625 C 31.789062 190.191406 31.851562 192.742188 31.976562 195.289062 C 32.101562 197.835938 32.289062 200.378906 32.539062 202.917969 C 32.789062 205.457031 33.101562 207.988281 33.476562 210.511719 C 33.851562 213.035156 34.285156 215.546875 34.785156 218.046875 C 35.28125 220.550781 35.839844 223.035156 36.460938 225.511719 C 37.078125 227.984375 37.761719 230.441406 38.5 232.882812 C 39.242188 235.324219 40.039062 237.746094 40.898438 240.148438 C 41.757812 242.546875 42.675781 244.929688 43.652344 247.285156 C 44.628906 249.640625 45.664062 251.972656 46.753906 254.277344 C 47.84375 256.582031 48.988281 258.859375 50.191406 261.109375 C 51.394531 263.359375 52.652344 265.578125 53.960938 267.765625 C 55.273438 269.953125 56.636719 272.109375 58.054688 274.230469 C 59.472656 276.351562 60.941406 278.433594 62.460938 280.484375 C 63.980469 282.53125 65.546875 284.542969 67.167969 286.515625 C 68.785156 288.484375 70.449219 290.417969 72.164062 292.304688 C 73.875 294.195312 75.632812 296.042969 77.4375 297.847656 C 79.242188 299.648438 81.089844 301.410156 82.976562 303.121094 C 84.867188 304.835938 86.796875 306.5 88.769531 308.117188 C 90.742188 309.734375 92.753906 311.304688 94.800781 312.824219 C 96.847656 314.34375 98.933594 315.8125 101.054688 317.230469 C 103.175781 318.644531 105.328125 320.011719 107.519531 321.320312 C 109.707031 322.632812 111.925781 323.890625 114.171875 325.089844 C 116.421875 326.292969 118.699219 327.441406 121.007812 328.53125 C 123.3125 329.621094 125.644531 330.65625 128 331.632812 C 130.355469 332.605469 132.734375 333.523438 135.136719 334.382812 C 137.539062 335.242188 139.960938 336.042969 142.402344 336.785156 C 144.839844 337.523438 147.296875 338.203125 149.773438 338.824219 C 152.246094 339.445312 154.734375 340.003906 157.238281 340.5 C 159.738281 340.996094 162.25 341.433594 164.773438 341.808594 C 167.296875 342.183594 169.828125 342.496094 172.367188 342.746094 C 174.902344 342.996094 177.445312 343.183594 179.996094 343.308594 C 182.542969 343.433594 185.089844 343.496094 187.640625 343.496094 C 190.191406 343.496094 192.742188 343.433594 195.289062 343.308594 C 197.835938 343.183594 200.378906 342.996094 202.917969 342.746094 C 205.457031 342.496094 207.988281 342.183594 210.511719 341.808594 C 213.035156 341.433594 215.546875 340.996094 218.046875 340.5 C 220.550781 340.003906 223.035156 339.445312 225.511719 338.824219 C 227.984375 338.203125 230.441406 337.523438 232.882812 336.785156 C 235.324219 336.042969 237.746094 335.242188 240.148438 334.382812 C 242.546875 333.523438 244.929688 332.605469 247.285156 331.632812 C 249.640625 330.65625 251.972656 329.621094 254.277344 328.53125 C 256.582031 327.441406 258.859375 326.292969 261.109375 325.089844 C 263.359375 323.890625 265.578125 322.632812 267.765625 321.320312 C 269.953125 320.011719 272.109375 318.644531 274.230469 317.230469 C 276.351562 315.8125 278.433594 314.34375 280.484375 312.824219 C 282.53125 311.304688 284.542969 309.734375 286.515625 308.117188 C 288.484375 306.5 290.417969 304.835938 292.304688 303.121094 C 294.195312 301.410156 296.042969 299.648438 297.847656 297.847656 C 299.648438 296.042969 301.410156 294.195312 303.121094 292.304688 C 304.835938 290.417969 306.5 288.484375 308.117188 286.515625 C 309.734375 284.542969 311.304688 282.53125 312.824219 280.484375 C 314.34375 278.433594 315.8125 276.351562 317.230469 274.230469 C 318.644531 272.109375 320.011719 269.953125 321.320312 267.765625 C 322.632812 265.578125 323.890625 263.359375 325.09375 261.109375 C 326.292969 258.859375 327.441406 256.582031 328.53125 254.277344 C 329.621094 251.972656 330.65625 249.640625 331.632812 247.285156 C 332.605469 244.929688 333.523438 242.546875 334.382812 240.148438 C 335.242188 237.746094 336.042969 235.324219 336.785156 232.882812 C 337.523438 230.441406 338.203125 227.984375 338.824219 225.511719 C 339.445312 223.035156 340.003906 220.550781 340.5 218.046875 C 340.996094 215.546875 341.433594 213.035156 341.808594 210.511719 C 342.183594 207.988281 342.496094 205.457031 342.746094 202.917969 C 342.996094 200.378906 343.183594 197.835938 343.308594 195.289062 C 343.433594 192.742188 343.496094 190.191406 343.496094 187.640625 C 343.492188 185.09375 343.425781 182.542969 343.296875 179.996094 C 343.171875 177.449219 342.980469 174.910156 342.726562 172.371094 C 342.476562 169.835938 342.160156 167.304688 341.785156 164.78125 C 341.40625 162.261719 340.96875 159.75 340.46875 157.25 C 339.96875 154.75 339.410156 152.261719 338.789062 149.789062 C 338.167969 147.316406 337.484375 144.859375 336.742188 142.421875 C 336 139.980469 335.199219 137.5625 334.339844 135.160156 C 333.480469 132.761719 332.558594 130.382812 331.582031 128.027344 C 330.605469 125.671875 329.570312 123.34375 328.480469 121.039062 C 327.386719 118.734375 326.242188 116.457031 325.039062 114.210938 C 323.835938 111.960938 322.578125 109.742188 321.265625 107.558594 C 319.953125 105.371094 318.589844 103.21875 317.171875 101.097656 C 315.753906 98.976562 314.289062 96.894531 312.769531 94.847656 C 311.25 92.800781 309.679688 90.789062 308.0625 88.820312 C 306.445312 86.847656 304.777344 84.917969 303.066406 83.027344 C 301.355469 81.140625 299.597656 79.292969 297.792969 77.492188 C 295.992188 75.6875 294.144531 73.929688 292.253906 72.21875 C 290.367188 70.503906 288.4375 68.839844 286.464844 67.222656 C 284.496094 65.605469 282.484375 64.035156 280.4375 62.515625 C 278.390625 60.996094 276.304688 59.527344 274.1875 58.109375 C 272.066406 56.695312 269.914062 55.328125 267.726562 54.019531 C 265.539062 52.707031 263.324219 51.449219 261.074219 50.246094 C 258.828125 49.042969 256.550781 47.894531 254.246094 46.804688 C 251.941406 45.710938 249.609375 44.679688 247.257812 43.703125 C 244.902344 42.722656 242.523438 41.804688 240.121094 40.945312 C 237.722656 40.085938 235.304688 39.28125 232.863281 38.542969 C 230.425781 37.800781 227.96875 37.117188 225.496094 36.496094 C 223.023438 35.875 220.535156 35.3125 218.035156 34.8125 C 215.535156 34.3125 213.023438 33.875 210.5 33.5 C 207.980469 33.125 205.449219 32.808594 202.914062 32.554688 C 200.375 32.304688 197.832031 32.113281 195.285156 31.984375 C 192.738281 31.859375 190.191406 31.792969 187.640625 31.789062 Z M 283.550781 230.761719 L 251.082031 269.722656 C 250.464844 270.464844 249.71875 271.039062 248.84375 271.449219 C 247.96875 271.859375 247.050781 272.0625 246.085938 272.0625 L 96.726562 272.0625 C 96.109375 272.0625 95.507812 271.976562 94.914062 271.804688 C 94.320312 271.628906 93.765625 271.378906 93.246094 271.046875 C 92.722656 270.714844 92.261719 270.320312 91.851562 269.855469 C 91.445312 269.390625 91.109375 268.882812 90.847656 268.324219 C 90.585938 267.761719 90.410156 267.179688 90.3125 266.570312 C 90.21875 265.960938 90.210938 265.347656 90.289062 264.738281 C 90.367188 264.125 90.53125 263.535156 90.777344 262.972656 C 91.023438 262.40625 91.347656 261.886719 91.742188 261.414062 L 124.210938 222.449219 C 124.828125 221.707031 125.570312 221.132812 126.445312 220.726562 C 127.316406 220.316406 128.234375 220.113281 129.199219 220.113281 L 278.554688 220.113281 C 279.171875 220.109375 279.777344 220.195312 280.371094 220.367188 C 280.964844 220.542969 281.519531 220.792969 282.042969 221.125 C 282.5625 221.453125 283.027344 221.851562 283.433594 222.316406 C 283.84375 222.777344 284.175781 223.289062 284.441406 223.847656 C 284.703125 224.40625 284.878906 224.992188 284.976562 225.601562 C 285.070312 226.210938 285.078125 226.820312 285 227.433594 C 284.921875 228.046875 284.757812 228.636719 284.511719 229.203125 C 284.265625 229.765625 283.945312 230.285156 283.550781 230.761719 Z M 284.433594 209.878906 C 284.171875 210.4375 283.835938 210.945312 283.429688 211.410156 C 283.023438 211.875 282.558594 212.269531 282.039062 212.601562 C 281.519531 212.933594 280.960938 213.183594 280.371094 213.359375 C 279.777344 213.53125 279.171875 213.617188 278.554688 213.617188 L 129.199219 213.617188 C 128.234375 213.617188 127.316406 213.414062 126.445312 213.003906 C 125.570312 212.59375 124.828125 212.019531 124.210938 211.28125 L 91.742188 172.316406 C 91.347656 171.84375 91.023438 171.324219 90.777344 170.757812 C 90.53125 170.191406 90.367188 169.601562 90.289062 168.992188 C 90.210938 168.378906 90.21875 167.769531 90.3125 167.160156 C 90.410156 166.550781 90.585938 165.964844 90.847656 165.40625 C 91.109375 164.847656 91.445312 164.335938 91.851562 163.875 C 92.261719 163.410156 92.722656 163.011719 93.246094 162.679688 C 93.765625 162.351562 94.320312 162.097656 94.914062 161.925781 C 95.507812 161.753906 96.109375 161.667969 96.726562 161.667969 L 246.085938 161.667969 C 247.050781 161.664062 247.96875 161.871094 248.84375 162.277344 C 249.71875 162.6875 250.464844 163.261719 251.082031 164.003906 L 283.550781 202.96875 C 283.945312 203.441406 284.265625 203.960938 284.511719 204.527344 C 284.757812 205.09375 284.917969 205.683594 284.996094 206.292969 C 285.074219 206.90625 285.066406 207.515625 284.96875 208.125 C 284.875 208.734375 284.695312 209.320312 284.433594 209.878906 Z M 283.550781 113.871094 L 251.082031 152.835938 C 250.464844 153.574219 249.71875 154.152344 248.84375 154.558594 C 247.96875 154.96875 247.050781 155.171875 246.085938 155.171875 L 96.726562 155.171875 C 96.109375 155.171875 95.507812 155.085938 94.914062 154.914062 C 94.320312 154.742188 93.765625 154.488281 93.246094 154.15625 C 92.722656 153.828125 92.261719 153.429688 91.851562 152.964844 C 91.445312 152.503906 91.109375 151.992188 90.847656 151.433594 C 90.585938 150.875 90.410156 150.289062 90.3125 149.679688 C 90.21875 149.070312 90.210938 148.460938 90.289062 147.847656 C 90.367188 147.234375 90.53125 146.648438 90.777344 146.082031 C 91.023438 145.515625 91.347656 144.996094 91.742188 144.523438 L 124.210938 105.558594 C 124.828125 104.820312 125.570312 104.246094 126.445312 103.835938 C 127.316406 103.425781 128.234375 103.222656 129.199219 103.222656 L 278.554688 103.222656 C 279.171875 103.222656 279.777344 103.308594 280.371094 103.480469 C 280.964844 103.652344 281.519531 103.902344 282.042969 104.234375 C 282.5625 104.566406 283.027344 104.960938 283.433594 105.425781 C 283.84375 105.890625 284.175781 106.398438 284.441406 106.957031 C 284.703125 107.519531 284.878906 108.101562 284.976562 108.710938 C 285.070312 109.320312 285.078125 109.933594 285 110.542969 C 284.921875 111.15625 284.757812 111.746094 284.511719 112.3125 C 284.265625 112.878906 283.945312 113.398438 283.550781 113.871094 Z M 283.550781 113.871094 " fill-opacity="1" fill-rule="nonzero"/></svg>